<svg width="630" height="179" viewBox="0 0 630 179" fill="none" xmlns="http://www.w3.org/2000/svg">
<path d="M0.809559 55.9532C0.745109 55.953 0.681684 55.9693 0.625307 56.0006C0.56893 56.0318 0.521476 56.0769 0.487452 56.1317C0.453428 56.1864 0.433959 56.2489 0.430905 56.3133C0.427852 56.3777 0.441315 56.4418 0.470006 56.4995L18.9543 93.4532C18.9853 93.5168 19.0337 93.5704 19.0937 93.6078C19.1537 93.6453 19.2231 93.6652 19.2938 93.6652C19.3646 93.6652 19.4339 93.6453 19.494 93.6078C19.554 93.5704 19.6023 93.5168 19.6334 93.4532L38.125 56.4995C38.1537 56.4418 38.1672 56.3777 38.1641 56.3133C38.1611 56.2489 38.1416 56.1864 38.1076 56.1317C38.0736 56.0769 38.0261 56.0318 37.9697 56.0006C37.9133 55.9693 37.8499 55.953 37.7855 55.9532H0.809559ZM1.41487 56.7062H37.1727L19.2938 92.4345L1.41487 56.7062Z" fill="#D92B44"/>
<path d="M129.38 0.315918C129.28 0.316316 129.185 0.356115 129.114 0.426632C129.044 0.497149 129.004 0.592669 129.003 0.692394V138.136C129.004 138.236 129.044 138.331 129.114 138.402C129.185 138.472 129.28 138.512 129.38 138.512H233.907C234.007 138.512 234.103 138.472 234.173 138.402C234.244 138.331 234.284 138.236 234.284 138.136V114.979C234.284 114.879 234.244 114.784 234.173 114.713C234.103 114.643 234.007 114.603 233.907 114.602H157.505V77.9513H226.127C226.177 77.9511 226.226 77.9409 226.273 77.9215C226.319 77.902 226.36 77.8736 226.395 77.8379C226.43 77.8022 226.458 77.7599 226.477 77.7135C226.495 77.6671 226.504 77.6174 226.503 77.5674V54.4178C226.504 54.3678 226.495 54.3181 226.477 54.2717C226.458 54.2252 226.43 54.183 226.395 54.1473C226.36 54.1116 226.319 54.0831 226.273 54.0637C226.226 54.0442 226.177 54.0341 226.127 54.0339H157.505V24.3218H231.287C231.387 24.3214 231.482 24.2816 231.553 24.2111C231.623 24.1406 231.663 24.0451 231.663 23.9453V0.692394C231.663 0.592669 231.623 0.497135 231.553 0.426617C231.482 0.3561 231.387 0.316316 231.287 0.315918H129.38ZM129.756 1.07625H230.903V23.5689H157.128C157.029 23.5693 156.933 23.6091 156.863 23.6796C156.792 23.7501 156.752 23.8456 156.752 23.9453V54.4178C156.752 54.5175 156.792 54.613 156.863 54.6836C156.933 54.7541 157.029 54.7939 157.128 54.7943H225.75V77.1909H157.128C157.029 77.1913 156.933 77.2311 156.863 77.3016C156.792 77.3721 156.752 77.4677 156.752 77.5674V114.979C156.752 115.079 156.792 115.174 156.863 115.245C156.933 115.315 157.029 115.355 157.128 115.355H233.531V137.752H129.756V1.07625ZM415.399 3.08413C415.341 3.05238 415.275 3.03638 415.209 3.0377C415.143 3.03903 415.079 3.05764 415.022 3.09168L388.58 18.4608C388.523 18.4949 388.476 18.5437 388.443 18.602C388.411 18.6604 388.395 18.7262 388.396 18.793V38.1926H376.681C376.581 38.193 376.486 38.2328 376.415 38.3033C376.345 38.3738 376.305 38.4693 376.304 38.569V59.5705C376.305 59.6702 376.345 59.7658 376.415 59.8363C376.486 59.9068 376.581 59.9466 376.681 59.947H388.396V102.976C388.396 112.296 388.67 118.478 389.245 121.608C389.939 125.954 391.166 129.445 392.958 132.068C392.96 132.071 392.963 132.073 392.965 132.076C394.829 134.646 397.708 136.743 401.565 138.387C405.429 139.971 409.766 140.764 414.557 140.764C422.35 140.764 429.337 139.44 435.515 136.793C435.59 136.761 435.653 136.706 435.694 136.635C435.736 136.565 435.753 136.483 435.744 136.401L433.492 115.968C433.486 115.911 433.468 115.857 433.437 115.808C433.407 115.76 433.367 115.718 433.318 115.688C433.27 115.657 433.215 115.638 433.158 115.632C433.102 115.625 433.044 115.632 432.99 115.651C428.385 117.331 424.873 118.161 422.523 118.161C420.838 118.161 419.43 117.745 418.249 116.921C417.122 116.09 416.402 115.078 416.049 113.85C415.911 113.237 415.787 111.7 415.709 109.339C415.632 106.972 415.591 103.759 415.591 99.6987V59.9468H433.212C433.312 59.9464 433.407 59.9066 433.478 59.8361C433.548 59.7656 433.588 59.6701 433.588 59.5703V38.5689C433.588 38.4692 433.548 38.3736 433.478 38.3031C433.407 38.2326 433.312 38.1928 433.212 38.1924H415.591V3.4163C415.591 3.34883 415.574 3.28245 415.54 3.22404C415.506 3.16562 415.457 3.11732 415.399 3.08413ZM414.83 4.0733V38.5689C414.83 38.6189 414.841 38.6683 414.86 38.7144C414.879 38.7605 414.908 38.8022 414.944 38.8373C414.979 38.8723 415.022 38.8999 415.068 38.9184C415.114 38.937 415.164 38.9461 415.214 38.9453H432.835V59.1939H415.214C415.164 59.1931 415.114 59.2023 415.068 59.2208C415.022 59.2394 414.979 59.2669 414.944 59.3019C414.908 59.337 414.879 59.3787 414.86 59.4248C414.841 59.4709 414.83 59.5203 414.83 59.5703V99.6983C414.83 103.763 414.87 106.979 414.948 109.361C415.026 111.743 415.136 113.261 415.31 114.027C415.312 114.034 415.315 114.041 415.317 114.049C415.715 115.441 416.553 116.616 417.798 117.533C417.8 117.536 417.803 117.538 417.805 117.541C419.123 118.463 420.709 118.921 422.522 118.921C424.938 118.921 428.43 118.03 432.783 116.478L434.953 136.18C428.943 138.712 422.159 140.004 414.557 140.004C409.851 140.004 405.62 139.233 401.86 137.693H401.853C398.088 136.088 395.338 134.061 393.578 131.633C391.873 129.133 390.671 125.754 389.99 121.483C389.99 121.48 389.99 121.478 389.99 121.475C389.44 118.479 389.149 112.281 389.149 102.976V59.5703C389.148 59.4706 389.108 59.3751 389.038 59.3046C388.967 59.2341 388.872 59.1943 388.772 59.1939H377.057V38.9453H388.772C388.872 38.9449 388.967 38.9051 389.038 38.8346C389.108 38.7641 389.148 38.6686 389.149 38.5689V19.0069L414.83 4.0733ZM320.859 35.9409C307.887 35.9409 297.065 41.4588 288.423 52.2401V38.5689C288.422 38.4691 288.383 38.3736 288.312 38.3031C288.242 38.2326 288.146 38.1928 288.046 38.1924H263.575C263.476 38.1928 263.38 38.2326 263.31 38.3031C263.239 38.3736 263.199 38.4691 263.199 38.5689V138.136C263.199 138.236 263.239 138.331 263.31 138.402C263.38 138.472 263.476 138.512 263.575 138.512H289.921C290.021 138.512 290.117 138.472 290.187 138.402C290.258 138.331 290.297 138.236 290.298 138.136V93.0398C290.298 81.9297 290.964 74.3129 292.247 70.2815C293.597 66.2293 296.043 62.9949 299.606 60.5374C303.17 58.0795 307.175 56.8538 311.668 56.8538C315.169 56.8538 318.118 57.7137 320.549 59.4153C323.044 61.1196 324.835 63.5118 325.938 66.6348C327.016 69.6299 327.606 76.5821 327.606 87.3189V138.136C327.606 138.236 327.646 138.331 327.716 138.402C327.787 138.472 327.883 138.512 327.982 138.512H354.328C354.428 138.512 354.523 138.472 354.594 138.402C354.664 138.331 354.704 138.236 354.705 138.136V76.2608C354.705 68.5601 354.203 62.6326 353.191 58.4557V58.4481C352.242 54.276 350.504 50.5412 347.972 47.2498C345.486 43.935 341.801 41.241 336.944 39.1592C332.08 37.0115 326.717 35.9409 320.859 35.9409ZM504.033 35.9409C499.72 35.9409 495.827 37.0258 492.392 39.189C489.198 41.2378 485.617 45.6732 481.725 51.7086V38.5689C481.725 38.4692 481.685 38.3736 481.614 38.3031C481.544 38.2326 481.448 38.1928 481.348 38.1924H456.878C456.778 38.1928 456.682 38.2326 456.612 38.3031C456.541 38.3736 456.501 38.4692 456.501 38.5689V138.136C456.501 138.236 456.541 138.331 456.612 138.402C456.682 138.472 456.778 138.512 456.878 138.512H483.223C483.323 138.512 483.419 138.472 483.489 138.402C483.56 138.331 483.6 138.236 483.6 138.136V107.383C483.6 90.4598 484.33 79.3289 485.741 74.1127V74.1051C487.228 68.8394 489.244 65.2561 491.705 63.3349C494.199 61.328 497.227 60.3231 500.844 60.3231C504.562 60.3231 508.621 61.727 513.017 64.5751C513.065 64.606 513.119 64.6256 513.176 64.6325C513.232 64.6394 513.29 64.6334 513.344 64.6149C513.398 64.5965 513.447 64.566 513.487 64.5259C513.528 64.4857 513.559 64.437 513.578 64.3832L521.735 41.4181C521.764 41.3358 521.763 41.246 521.734 41.164C521.704 41.0819 521.647 41.0126 521.572 40.9678C515.958 37.6248 510.103 35.9409 504.033 35.9409ZM320.859 36.7013C326.625 36.7013 331.88 37.751 336.641 39.8533C336.644 39.8533 336.646 39.8533 336.649 39.8533C341.416 41.8966 344.978 44.5151 347.367 47.7003C347.367 47.7028 347.367 47.7053 347.367 47.7078C349.834 50.9147 351.535 54.5505 352.461 58.6256C353.448 62.6984 353.945 68.5899 353.945 76.261V137.752H328.359V87.319C328.359 76.5559 327.826 69.639 326.654 66.384C325.507 63.1341 323.604 60.591 320.977 58.7954C318.408 56.9971 315.293 56.101 311.669 56.101C307.037 56.101 302.857 57.3754 299.171 59.9175C295.484 62.4599 292.93 65.8476 291.531 70.0454C291.531 70.0479 291.531 70.0505 291.531 70.053C290.188 74.2715 289.545 81.9003 289.545 93.0402V137.752H263.952V38.9453H287.67V53.1924C287.67 53.2704 287.695 53.3464 287.74 53.4099C287.785 53.4734 287.849 53.5215 287.922 53.5473C287.996 53.5732 288.076 53.5757 288.151 53.5544C288.226 53.5332 288.292 53.4892 288.342 53.4286C296.972 42.2519 307.779 36.7013 320.859 36.7013ZM504.033 36.7013C509.864 36.7013 515.475 38.3192 520.901 41.4921L513.002 63.7264C508.686 61.0083 504.625 59.5703 500.844 59.5703C497.089 59.5703 493.871 60.6295 491.24 62.7446C488.578 64.8224 486.522 68.5513 485.01 73.906C485.01 73.9085 485.01 73.911 485.01 73.9135C483.546 79.3238 482.84 90.4348 482.84 107.383V137.752H457.254V38.9453H480.965V52.7273C480.964 52.8102 480.99 52.891 481.04 52.9573C481.09 53.0236 481.16 53.0718 481.239 53.0944C481.319 53.1171 481.404 53.1129 481.481 53.0826C481.558 53.0523 481.623 52.9975 481.666 52.9266C485.838 46.264 489.577 41.8988 492.798 39.8312C496.112 37.7443 499.846 36.7013 504.033 36.7013ZM526.762 38.1924C526.701 38.1924 526.641 38.2072 526.587 38.2355C526.533 38.2637 526.487 38.3046 526.452 38.3546C526.417 38.4046 526.395 38.4623 526.387 38.5228C526.379 38.5832 526.386 38.6446 526.408 38.7017L564.232 138.409C562.682 143.88 560.473 148.37 557.596 151.859C557.596 151.861 557.596 151.864 557.596 151.866C554.74 155.391 550.344 157.159 544.294 157.159C541.012 157.159 537.32 156.757 533.214 155.948C533.155 155.937 533.095 155.939 533.038 155.955C532.98 155.971 532.927 156 532.883 156.041C532.84 156.081 532.806 156.131 532.785 156.187C532.764 156.243 532.757 156.303 532.763 156.362L535.104 176.987C535.111 177.066 535.144 177.141 535.197 177.201C535.25 177.261 535.321 177.302 535.399 177.319C540.3 178.387 545.295 178.921 550.384 178.921C555.411 178.921 559.916 178.385 563.893 177.312C567.924 176.241 571.304 174.725 574.036 172.757L574.043 172.749C576.83 170.848 579.269 168.347 581.351 165.257L581.359 165.249C583.51 162.148 585.737 157.69 588.054 151.866C588.054 151.863 588.054 151.861 588.054 151.858L594.336 134.511L629.489 38.7014C629.51 38.6443 629.517 38.5828 629.509 38.5224C629.502 38.462 629.479 38.4043 629.445 38.3542C629.41 38.3042 629.363 38.2633 629.309 38.2351C629.255 38.2069 629.195 38.1921 629.134 38.192H601.858C601.779 38.1914 601.701 38.216 601.636 38.2624C601.571 38.3089 601.522 38.3746 601.497 38.4504L578.598 108.054L555.153 38.4504C555.128 38.3746 555.079 38.3089 555.014 38.2624C554.949 38.216 554.871 38.1914 554.791 38.192L526.762 38.1924ZM527.308 38.9453H554.525L578.251 109.376C578.276 109.451 578.324 109.516 578.388 109.562C578.452 109.608 578.53 109.633 578.609 109.633C578.688 109.633 578.765 109.608 578.829 109.562C578.893 109.516 578.941 109.451 578.967 109.376L602.131 38.9453H628.595L593.627 134.253L587.345 151.6V151.586C585.039 157.382 582.829 161.798 580.731 164.821C580.731 164.824 580.731 164.826 580.731 164.829C578.692 167.857 576.322 170.291 573.615 172.137C573.61 172.137 573.605 172.137 573.6 172.137C570.958 174.042 567.658 175.528 563.693 176.581C559.794 177.633 555.357 178.161 550.384 178.161C545.435 178.161 540.586 177.623 535.819 176.603L533.56 156.746C537.488 157.492 541.097 157.919 544.293 157.919C550.493 157.919 555.16 156.064 558.179 152.339C561.155 148.728 563.427 144.119 565 138.52C565.022 138.442 565.02 138.36 564.992 138.284L527.308 38.9453Z" fill="#D92B44"/>
</svg>
