<svg width="974" height="947" viewBox="0 0 974 947" fill="none" xmlns="http://www.w3.org/2000/svg">
<g clip-path="url(#clip0_3_2)">
<path d="M487.316 0.115216L454.869 0.244122C454.819 0.244265 454.77 0.254241 454.724 0.27348C454.678 0.29272 454.637 0.320839 454.602 0.356229C454.566 0.391618 454.539 0.433583 454.52 0.479703C454.501 0.525823 454.492 0.575194 454.492 0.624982L454.797 76.9785C454.797 77.0283 454.807 77.0776 454.826 77.1235C454.845 77.1694 454.873 77.2111 454.909 77.2461C454.944 77.2811 454.986 77.3088 455.032 77.3276C455.079 77.3464 455.128 77.3558 455.178 77.3555L470.594 77.293C470.694 77.2927 470.79 77.2526 470.861 77.1815C470.931 77.1105 470.971 77.0143 470.971 76.914L470.844 45.416L473.592 45.406C477.112 45.3919 479.675 45.6837 481.227 46.238C481.23 46.2387 481.233 46.2394 481.237 46.24C482.801 46.7656 484.299 47.7769 485.731 49.2986C485.731 49.3 485.731 49.3013 485.731 49.3026C487.144 50.7714 489.881 54.4997 493.86 60.4159C493.86 60.4166 493.86 60.4173 493.86 60.4179L505.073 76.9882C505.107 77.0396 505.154 77.0816 505.209 77.1105C505.264 77.1395 505.325 77.1545 505.387 77.1543L523.825 77.08C523.892 77.0798 523.958 77.0616 524.016 77.0271C524.074 76.9926 524.122 76.9431 524.155 76.8839C524.187 76.8247 524.203 76.7578 524.201 76.6903C524.199 76.6228 524.179 76.5571 524.143 76.5L514.76 61.6425C511.05 55.7114 508.098 51.5821 505.864 49.2246V49.2226C503.853 47.068 501.287 45.1074 498.289 43.2929C504.579 42.2077 509.428 39.9009 512.692 36.2714C512.692 36.2707 512.692 36.2701 512.692 36.2694C516.108 32.4345 517.806 27.5804 517.784 21.7772C517.766 17.2013 516.618 13.1183 514.342 9.55847C512.066 5.99874 509.014 3.51689 505.217 2.15027C501.444 0.744637 495.498 0.0823594 487.319 0.115109L487.316 0.115216ZM487.316 0.871076C495.455 0.838486 501.353 1.51744 504.953 2.85936C504.953 2.86002 504.953 2.86069 504.953 2.86136C508.598 4.1733 511.5 6.52855 513.697 9.96487C515.894 13.4011 517.002 17.3294 517.019 21.7813C517.041 27.4364 515.408 32.0736 512.119 35.7657C508.838 39.4132 503.907 41.7462 497.269 42.7364C497.192 42.748 497.12 42.7835 497.063 42.8378C497.007 42.8922 496.969 42.9628 496.954 43.0398C496.94 43.1168 496.949 43.1965 496.982 43.2678C497.015 43.339 497.069 43.3983 497.137 43.4375C500.452 45.3535 503.173 47.4552 505.305 49.7403C505.305 49.7409 505.305 49.7416 505.305 49.7423C507.464 52.0202 510.411 56.13 514.109 62.043C514.109 62.0437 514.109 62.0444 514.109 62.045L523.127 76.3263L505.574 76.3966L494.475 59.9942C490.489 54.0673 487.779 50.3545 486.263 48.7794C484.769 47.1913 483.171 46.0981 481.471 45.5255C479.754 44.9124 477.141 44.6362 473.578 44.6505L470.453 44.6622C470.353 44.6625 470.257 44.7025 470.186 44.7736C470.115 44.8446 470.076 44.9409 470.076 45.0411L470.203 76.5392L455.541 76.5977L455.25 0.999982L487.316 0.871076ZM552.941 3.62889C552.843 3.61032 552.741 3.63157 552.658 3.68796C552.576 3.74436 552.519 3.83129 552.5 3.92967L538.318 78.957C538.3 79.0554 538.321 79.1572 538.377 79.2399C538.434 79.3227 538.521 79.3797 538.619 79.3984L595.682 90.1836C595.78 90.2021 595.882 90.1809 595.964 90.1245C596.047 90.0681 596.104 89.9812 596.123 89.8828L598.513 77.2422C598.523 77.1933 598.523 77.143 598.513 77.0943C598.503 77.0455 598.483 76.9992 598.455 76.958C598.427 76.9168 598.392 76.8815 598.35 76.8542C598.308 76.8269 598.262 76.8081 598.213 76.7988L556.67 68.9473L560.388 49.2715L597.683 56.3203C597.782 56.3389 597.884 56.3177 597.966 56.2613C598.049 56.2049 598.106 56.1179 598.125 56.0195L600.513 43.3769C600.532 43.2785 600.511 43.1768 600.454 43.094C600.398 43.0112 600.311 42.9542 600.213 42.9355L562.918 35.8867L565.922 19.998L606.031 27.5781C606.13 27.5967 606.231 27.5754 606.314 27.519C606.397 27.4626 606.454 27.3757 606.473 27.2773L608.871 14.5859C608.889 14.4875 608.868 14.3858 608.812 14.303C608.756 14.2203 608.669 14.1633 608.57 14.1445L552.941 3.62889ZM416.955 4.21873L401.851 7.30662C401.803 7.31653 401.756 7.33596 401.715 7.36383C401.674 7.39169 401.638 7.42743 401.611 7.46899C401.584 7.51055 401.565 7.55711 401.555 7.606C401.546 7.65489 401.546 7.70515 401.557 7.75389L410.019 49.1367C411.228 55.0467 411.867 59.3214 411.945 61.914C412.022 64.4648 411.195 66.7893 409.43 68.9433C407.685 71.0307 404.717 72.5341 400.48 73.4004C396.318 74.2516 392.888 74.0108 390.158 72.7207V72.7187C387.439 71.379 385.478 69.3079 384.238 66.455V66.453C384.238 66.4521 384.238 66.452 384.238 66.451C383.505 64.6957 382.457 60.5586 381.144 54.1385L372.859 13.6229C372.839 13.5248 372.781 13.4386 372.698 13.3833C372.614 13.328 372.512 13.3081 372.414 13.328L357.31 16.4159C357.212 16.4359 357.126 16.494 357.071 16.5775C357.015 16.661 356.996 16.763 357.015 16.8612L365.176 56.7655C366.89 65.1485 368.677 71.3937 370.562 75.5272C371.86 78.3366 373.877 80.8677 376.6 83.1131C376.6 83.1138 376.6 83.1145 376.6 83.1151C379.33 85.3383 382.734 86.9078 386.795 87.8339C386.795 87.8345 386.795 87.8352 386.795 87.8359C390.924 88.7295 396.558 88.4235 403.73 86.957C409.681 85.7402 414.368 84.0022 417.795 81.7148C417.795 81.7141 417.795 81.7134 417.795 81.7128C421.195 79.404 423.749 76.7211 425.437 73.6659V73.6639C427.16 70.6018 428.049 67.0975 428.107 63.1698C428.166 59.2307 427.27 52.7966 425.432 43.8045L417.398 4.51352C417.388 4.46473 417.369 4.41837 417.341 4.37712C417.313 4.33586 417.278 4.30052 417.236 4.27311C417.194 4.24571 417.148 4.22679 417.099 4.21743C417.05 4.20808 417 4.20847 416.951 4.21859L416.955 4.21873ZM553.172 4.44139L608.058 14.8164L605.801 26.7656L565.689 19.1836C565.641 19.1744 565.59 19.175 565.542 19.1852C565.493 19.1955 565.447 19.2152 565.406 19.2434C565.365 19.2715 565.33 19.3074 565.303 19.3491C565.276 19.3908 565.257 19.4374 565.248 19.4863L562.105 36.1172C562.096 36.166 562.096 36.2163 562.106 36.2651C562.116 36.3138 562.136 36.3602 562.164 36.4013C562.192 36.4425 562.227 36.4778 562.269 36.5051C562.311 36.5324 562.357 36.5513 562.406 36.5605L599.701 43.6094L597.453 55.5058L560.158 48.457C560.109 48.4476 560.059 48.4479 560.01 48.458C559.961 48.4681 559.915 48.4878 559.873 48.516C559.832 48.5441 559.797 48.5802 559.77 48.622C559.742 48.6638 559.724 48.7107 559.715 48.7598L555.855 69.1777C555.846 69.2267 555.846 69.2771 555.856 69.326C555.867 69.3749 555.886 69.4213 555.914 69.4625C555.943 69.5037 555.978 69.539 556.02 69.5662C556.062 69.5934 556.109 69.6121 556.158 69.6211L597.699 77.4726L595.451 89.3711L539.131 78.7246L553.172 4.44139ZM416.736 5.03514L424.695 43.9551C426.529 52.9247 427.413 59.3473 427.355 63.1582C427.298 66.9797 426.438 70.3523 424.781 73.2969C424.781 73.2975 424.781 73.2982 424.781 73.2989C423.158 76.2362 420.696 78.8309 417.375 81.086C414.066 83.2942 409.467 85.013 403.58 86.2168C396.466 87.6714 390.915 87.9526 386.961 87.0977C382.993 86.1927 379.705 84.6676 377.078 82.5293V82.5273C374.431 80.3433 372.491 77.907 371.246 75.2129V75.2109C369.406 71.1752 367.62 64.9682 365.912 56.6152L357.828 17.08L372.191 14.1445L380.4 54.289C381.716 60.7257 382.744 64.8433 383.539 66.746C383.539 66.748 383.539 66.75 383.539 66.752C384.843 69.7545 386.951 71.9865 389.824 73.4005C389.828 73.4012 389.831 73.4018 389.834 73.4025C392.753 74.7831 396.365 75.0143 400.637 74.1407C404.973 73.2541 408.114 71.7007 410.014 69.4279C410.014 69.4272 410.014 69.4265 410.014 69.4259C411.878 67.1526 412.786 64.6221 412.703 61.8907C412.622 59.1997 411.974 54.9129 410.762 48.9844L402.375 7.97078L416.736 5.03514ZM482.365 13.0508L470.334 13.0996C470.234 13.1004 470.138 13.1407 470.068 13.2117C469.998 13.2827 469.959 13.3786 469.959 13.4785L470.035 32.8535C470.035 32.9033 470.045 32.9526 470.064 32.9985C470.083 33.0444 470.112 33.0861 470.147 33.1211C470.182 33.1562 470.224 33.1839 470.27 33.2026C470.317 33.2214 470.366 33.2308 470.416 33.2304L481.822 33.1856C489.228 33.1559 493.809 32.8544 495.793 32.1719C497.699 31.5161 499.212 30.3772 500.293 28.7793C501.377 27.1745 501.908 25.179 501.898 22.8301C501.888 20.1936 501.158 18.0259 499.695 16.3926C498.271 14.7283 496.245 13.6886 493.679 13.2715C493.675 13.2708 493.671 13.2701 493.667 13.2695C492.331 13.0894 488.619 13.0257 482.365 13.0508ZM482.365 13.8066C488.609 13.7816 492.393 13.8625 493.56 14.0195C493.561 14.0196 493.56 14.0195 493.56 14.0195C495.99 14.4164 497.822 15.374 499.117 16.8887C499.12 16.8907 499.124 16.8926 499.127 16.8946C500.454 18.3749 501.129 20.3327 501.139 22.834C501.149 25.0684 500.651 26.8964 499.664 28.3555C498.673 29.8215 497.313 30.8481 495.543 31.4571C493.851 32.0393 489.2 32.4002 481.815 32.4297L470.785 32.4727L470.713 13.8536L482.365 13.8066ZM327.955 25.334L271.756 48.209C271.71 48.2275 271.668 48.255 271.632 48.2898C271.597 48.3246 271.569 48.366 271.549 48.4118C271.53 48.4575 271.52 48.5065 271.519 48.5562C271.519 48.6059 271.528 48.6551 271.547 48.7012L276.418 60.666C276.456 60.7586 276.529 60.8325 276.621 60.8713C276.713 60.9101 276.817 60.9107 276.91 60.873L297.545 52.4746L321.318 110.881C321.356 110.973 321.429 111.047 321.522 111.086C321.614 111.125 321.718 111.126 321.81 111.088L336.09 105.275C336.182 105.237 336.256 105.164 336.295 105.072C336.334 104.98 336.334 104.876 336.297 104.783L312.523 46.3769L333.109 37.998C333.155 37.9793 333.197 37.9516 333.233 37.9166C333.268 37.8816 333.296 37.8399 333.315 37.794C333.335 37.7481 333.345 37.6988 333.345 37.649C333.345 37.5992 333.335 37.5499 333.316 37.5039L328.447 25.541C328.409 25.4484 328.336 25.3745 328.244 25.3357C328.152 25.2969 328.048 25.2963 327.955 25.334ZM327.891 26.1758L332.475 37.4394L311.889 45.8183C311.843 45.8371 311.801 45.8648 311.766 45.8998C311.73 45.9348 311.702 45.9765 311.683 46.0224C311.664 46.0683 311.654 46.1176 311.653 46.1674C311.653 46.2171 311.663 46.2665 311.682 46.3125L335.455 104.719L321.875 110.246L298.102 51.8379C298.064 51.7452 297.991 51.6714 297.898 51.6326C297.806 51.5938 297.702 51.5931 297.61 51.6308L276.975 60.0312L272.391 48.7676L327.891 26.1758ZM682.086 39.5703C681.995 39.53 681.891 39.5277 681.797 39.5639C681.704 39.6002 681.629 39.672 681.588 39.7637L650.659 109.572C650.638 109.618 650.627 109.667 650.626 109.717C650.625 109.766 650.633 109.816 650.651 109.862C650.669 109.909 650.696 109.951 650.731 109.987C650.765 110.023 650.806 110.052 650.852 110.072L664.948 116.316C665.039 116.357 665.143 116.359 665.236 116.324C665.33 116.288 665.405 116.216 665.446 116.125L696.373 46.3144C696.414 46.223 696.416 46.1192 696.381 46.0259C696.345 45.9325 696.273 45.8572 696.182 45.8164L682.086 39.5703ZM682.125 40.414L695.529 46.3515L664.908 115.473L651.502 109.533L682.125 40.414ZM243.561 62.8926L230.613 71.2617C230.529 71.3159 230.47 71.4013 230.449 71.499C230.428 71.5968 230.446 71.699 230.5 71.7832L253.43 107.258C256.704 112.324 258.854 116.074 259.869 118.461C260.869 120.811 260.943 123.278 260.08 125.928C259.213 128.505 256.995 130.984 253.365 133.33C249.796 135.637 246.512 136.66 243.498 136.449C240.479 136.19 237.899 134.971 235.707 132.766L235.705 132.764C235.705 132.763 235.704 132.763 235.703 132.762C234.382 131.393 231.901 127.921 228.344 122.418L205.902 87.6875C205.875 87.6456 205.841 87.6094 205.8 87.5811C205.759 87.5527 205.713 87.5327 205.664 87.5222C205.615 87.5116 205.565 87.5108 205.516 87.5197C205.467 87.5287 205.421 87.5472 205.379 87.5742L192.432 95.9433C192.348 95.9979 192.289 96.0834 192.268 96.1811C192.247 96.2788 192.266 96.3808 192.32 96.4648L214.428 130.672C219.072 137.858 223.008 143.024 226.268 146.189C226.268 146.19 226.269 146.191 226.27 146.191C228.5 148.337 231.3 149.959 234.652 151.061C234.653 151.061 234.654 151.062 234.654 151.063C238.006 152.141 241.75 152.366 245.869 151.752C250.041 151.083 255.176 148.751 261.324 144.777C266.425 141.481 270.161 138.156 272.522 134.779C272.522 134.779 272.522 134.778 272.522 134.777C274.849 131.391 276.255 127.963 276.717 124.504V124.5C277.207 121.022 276.76 117.434 275.387 113.754C274.01 110.063 270.836 104.394 265.854 96.6855L244.084 63.0039C244.029 62.9202 243.944 62.8615 243.846 62.8406C243.749 62.8197 243.647 62.8384 243.563 62.8926H243.561ZM243.653 63.7324L265.217 97.0957C270.187 104.785 273.346 110.447 274.678 114.018C276.014 117.598 276.438 121.053 275.965 124.398C275.965 124.399 275.965 124.4 275.965 124.4C275.521 127.727 274.173 131.039 271.899 134.348C269.619 137.608 265.959 140.881 260.913 144.143C254.813 148.085 249.743 150.365 245.748 151.006C241.723 151.605 238.105 151.379 234.881 150.342C231.621 149.27 228.929 147.705 226.789 145.648L226.787 145.646C223.606 142.556 219.685 137.422 215.057 130.262L193.155 96.373L205.467 88.414L227.709 122.828C231.276 128.346 233.73 131.807 235.162 133.291C235.164 133.292 235.165 133.294 235.166 133.295C237.473 135.618 240.25 136.93 243.44 137.203C243.443 137.203 243.446 137.203 243.45 137.203C246.671 137.428 250.12 136.332 253.782 133.965C257.499 131.562 259.86 128.974 260.803 126.166C260.803 126.165 260.803 126.163 260.803 126.162C261.713 123.367 261.641 120.679 260.571 118.164C259.517 115.687 257.354 111.93 254.069 106.848L231.344 71.6914L243.653 63.7324ZM727.522 66.582C725.453 66.8494 723.48 67.4197 721.604 68.2969C721.604 68.2975 721.604 68.2982 721.604 68.2989C717.91 70.0375 715.006 72.5991 712.92 75.9649C709.686 81.1832 708.964 86.9062 710.76 93.0332C712.052 97.4351 715.694 102.658 721.661 108.775C726.277 113.515 729.193 116.634 730.374 118.086C732.097 120.242 733.034 122.107 733.229 123.637C733.229 123.641 733.229 123.645 733.229 123.648C733.471 125.189 733.15 126.666 732.239 128.137C730.817 130.431 728.566 131.791 725.377 132.244C722.277 132.68 718.64 131.642 714.465 129.055C710.536 126.619 708.06 123.721 706.975 120.352V120.35C705.922 117.005 706.299 112.997 708.163 108.295C708.197 108.206 708.198 108.108 708.163 108.019C708.129 107.931 708.062 107.858 707.977 107.816L694.459 101.154C694.414 101.132 694.365 101.119 694.315 101.116C694.265 101.113 694.215 101.12 694.167 101.136C694.12 101.153 694.076 101.178 694.039 101.212C694.001 101.246 693.971 101.287 693.95 101.332C690.277 109.184 689.452 116.455 691.522 123.09C691.522 123.09 691.522 123.091 691.522 123.092C693.613 129.706 698.819 135.566 707.073 140.682C712.739 144.194 717.975 146.353 722.787 147.141C727.619 147.899 732.129 147.28 736.276 145.281C740.413 143.287 743.666 140.389 746.008 136.611C748.578 132.466 749.867 128.418 749.846 124.482V124.478C749.872 120.548 748.822 116.795 746.711 113.248C744.647 109.688 740.892 105.195 735.438 99.7265C730.009 94.2833 726.917 90.3203 726.178 88.0722C725.583 86.2582 725.738 84.6862 726.633 83.2421C727.621 81.6481 729.007 80.8181 730.916 80.6815C733.935 80.4604 737.323 81.4897 741.086 83.8222C744.733 86.0821 746.96 88.4779 747.834 90.9706C747.834 90.9726 747.834 90.9746 747.834 90.9766C748.755 93.4604 748.509 96.4955 747.026 100.123C746.991 100.208 746.988 100.303 747.018 100.39C747.049 100.477 747.11 100.55 747.19 100.596L760.651 108.143C760.737 108.191 760.84 108.204 760.935 108.177C761.031 108.151 761.113 108.088 761.162 108.002C764.693 101.839 765.499 95.5969 763.551 89.3692V89.3672C761.625 83.1357 756.53 77.4933 748.338 72.416C743.318 69.3046 738.54 67.391 734.002 66.6914C731.749 66.3509 729.583 66.3146 727.514 66.582H727.522ZM727.622 67.3281C729.615 67.0706 731.705 67.1086 733.895 67.4394C738.307 68.1196 742.993 69.9872 747.948 73.0586C756.047 78.0782 760.984 83.5964 762.837 89.5918C762.837 89.5924 762.837 89.5931 762.837 89.5938C764.689 95.5158 763.953 101.384 760.671 107.285L747.817 100.078C749.222 96.4895 749.523 93.3421 748.549 90.7149C747.592 87.9904 745.218 85.491 741.489 83.1797C737.638 80.7927 734.095 79.6912 730.866 79.9278C728.757 80.0786 727.09 81.0732 725.993 82.8438C724.985 84.4691 724.813 86.3289 725.462 88.3086C726.308 90.8835 729.45 94.7903 734.905 100.26C740.335 105.704 744.056 110.173 746.059 113.627C746.059 113.628 746.059 113.63 746.059 113.631C748.109 117.074 749.116 120.681 749.09 124.477C749.09 124.478 749.09 124.479 749.09 124.481C749.112 128.25 747.88 132.158 745.366 136.215C743.098 139.874 739.967 142.662 735.948 144.6C731.94 146.532 727.606 147.131 722.909 146.395C718.228 145.628 713.079 143.514 707.473 140.039C699.319 134.985 694.266 129.257 692.245 122.865V122.863C690.271 116.535 691.028 109.598 694.497 102.014L707.372 108.36C705.588 113.014 705.162 117.112 706.255 120.58C706.255 120.581 706.255 120.582 706.255 120.582C707.404 124.152 710.031 127.195 714.069 129.697C718.334 132.341 722.141 133.463 725.485 132.992C728.837 132.516 731.34 131.022 732.881 128.535C733.871 126.938 734.244 125.252 733.975 123.535C733.751 121.786 732.731 119.827 730.96 117.612C730.96 117.611 730.96 117.61 730.96 117.61C729.73 116.097 726.823 112.992 722.202 108.248C716.279 102.176 712.715 97.007 711.487 92.8205C709.741 86.8663 710.432 81.4157 713.563 76.3634C715.574 73.1187 718.352 70.6646 721.924 68.9826C723.73 68.1382 725.629 67.5859 727.624 67.3283L727.622 67.3281ZM166.048 117.148L128.257 153.365C128.221 153.4 128.192 153.441 128.172 153.486C128.152 153.532 128.141 153.581 128.14 153.63C128.139 153.68 128.147 153.73 128.165 153.776C128.183 153.822 128.21 153.865 128.245 153.9L181.075 209.027C181.109 209.063 181.151 209.092 181.196 209.112C181.242 209.132 181.291 209.142 181.34 209.143C181.39 209.144 181.44 209.135 181.486 209.117C181.532 209.099 181.574 209.072 181.61 209.037L192.739 198.371C192.775 198.337 192.804 198.296 192.824 198.25C192.844 198.205 192.855 198.156 192.856 198.106C192.857 198.056 192.848 198.007 192.83 197.961C192.812 197.914 192.785 197.872 192.751 197.836L170.561 174.682L193.301 152.889C193.374 152.82 193.415 152.725 193.417 152.625C193.42 152.525 193.382 152.428 193.313 152.356L184.376 143.03C184.306 142.957 184.211 142.916 184.112 142.914C184.012 142.911 183.915 142.949 183.842 143.018L161.1 164.811L149.12 152.309L175.508 127.02C175.58 126.95 175.622 126.855 175.624 126.755C175.625 126.655 175.588 126.559 175.518 126.487L166.583 117.16C166.549 117.124 166.508 117.096 166.462 117.076C166.417 117.055 166.368 117.045 166.318 117.044C166.268 117.042 166.219 117.051 166.172 117.069C166.126 117.087 166.083 117.114 166.048 117.148ZM166.298 117.955L174.712 126.736L148.323 152.023C148.287 152.058 148.258 152.099 148.238 152.145C148.219 152.19 148.208 152.239 148.207 152.289C148.206 152.339 148.215 152.388 148.233 152.434C148.251 152.481 148.278 152.523 148.313 152.559L160.817 165.607C160.851 165.643 160.892 165.672 160.938 165.692C160.983 165.712 161.032 165.723 161.082 165.724C161.132 165.725 161.181 165.717 161.227 165.699C161.274 165.681 161.316 165.654 161.352 165.619L184.092 143.826L192.506 152.605L169.766 174.398C169.73 174.433 169.701 174.474 169.681 174.519C169.661 174.565 169.65 174.614 169.649 174.664C169.648 174.713 169.657 174.763 169.675 174.809C169.693 174.855 169.72 174.898 169.754 174.934L191.944 198.088L181.358 208.232L129.051 153.65L166.298 117.955ZM836.557 143.031L779.116 193.334C779.041 193.4 778.995 193.493 778.988 193.593C778.982 193.693 779.015 193.792 779.081 193.867L788.517 204.643C788.583 204.718 788.676 204.764 788.776 204.77C788.876 204.777 788.974 204.744 789.05 204.678L825.509 172.75L808.72 227.439C808.701 227.501 808.698 227.566 808.711 227.629C808.724 227.692 808.753 227.75 808.796 227.799L818.987 239.437C819.053 239.513 819.146 239.559 819.246 239.565C819.346 239.572 819.445 239.539 819.52 239.473L876.962 189.168C877.037 189.102 877.083 189.009 877.09 188.909C877.096 188.809 877.063 188.71 876.997 188.635L867.561 177.859C867.495 177.784 867.402 177.738 867.302 177.731C867.202 177.725 867.103 177.758 867.028 177.824L829.676 210.535L847.049 154.711C847.069 154.649 847.072 154.584 847.058 154.52C847.045 154.457 847.016 154.398 846.973 154.35L837.091 143.066C837.024 142.991 836.931 142.945 836.831 142.938C836.731 142.932 836.633 142.965 836.557 143.031ZM836.77 143.848L846.264 154.689L828.555 211.59C828.53 211.669 828.532 211.754 828.56 211.831C828.588 211.909 828.641 211.976 828.71 212.021C828.78 212.066 828.862 212.087 828.944 212.081C829.027 212.074 829.105 212.041 829.167 211.986L867.241 178.643L876.18 188.85L819.307 238.656L809.503 227.461L826.622 171.701C826.647 171.622 826.645 171.537 826.617 171.46C826.589 171.382 826.537 171.315 826.467 171.27C826.398 171.225 826.315 171.204 826.233 171.21C826.15 171.217 826.072 171.25 826.01 171.305L788.837 203.859L779.899 193.654L836.77 143.848ZM77.2897 218.014C77.2465 217.989 77.1989 217.973 77.1495 217.966C77.1 217.96 77.0498 217.963 77.0017 217.976C76.9536 217.989 76.9085 218.012 76.8691 218.042C76.8297 218.073 76.7968 218.111 76.7721 218.154L48.6413 267.285C48.5916 267.372 48.5785 267.475 48.6049 267.572C48.6312 267.669 48.6949 267.751 48.7819 267.801L115.044 305.742C115.131 305.792 115.234 305.805 115.331 305.779C115.427 305.752 115.51 305.689 115.559 305.602L144.415 255.205C144.464 255.118 144.478 255.015 144.451 254.918C144.425 254.821 144.361 254.739 144.274 254.689L133.11 248.297C133.023 248.247 132.92 248.234 132.823 248.26C132.726 248.287 132.644 248.35 132.594 248.437L111.587 285.127L94.2077 275.176L113.069 242.238C113.119 242.151 113.132 242.048 113.106 241.951C113.079 241.855 113.015 241.772 112.928 241.723L101.764 235.33C101.677 235.28 101.574 235.267 101.477 235.294C101.381 235.32 101.299 235.384 101.249 235.471L82.3893 268.408L68.3542 260.373L88.6374 224.949C88.6873 224.862 88.7007 224.759 88.6747 224.663C88.6487 224.566 88.5855 224.484 88.4988 224.434L77.2897 218.014ZM77.241 218.857L87.7937 224.9L67.5105 260.324C67.4608 260.411 67.4477 260.514 67.4741 260.611C67.5004 260.708 67.5641 260.79 67.6511 260.84L82.3406 269.252C82.4276 269.302 82.5308 269.315 82.6275 269.288C82.7242 269.262 82.8065 269.198 82.8562 269.111L101.718 236.174L112.225 242.189L93.366 275.129C93.3161 275.216 93.3027 275.319 93.3287 275.415C93.3547 275.512 93.418 275.594 93.5046 275.645L111.54 285.971C111.627 286.02 111.73 286.033 111.827 286.007C111.923 285.981 112.006 285.917 112.055 285.83L133.063 249.141L143.571 255.158L115.091 304.898L49.4851 267.334L77.241 218.857ZM883.241 230.264C877.426 230.76 871.093 232.892 864.235 236.641C853.51 242.503 846.653 250.104 843.741 259.42C840.861 268.716 842.184 278.419 847.667 288.449C853.083 298.359 860.519 304.642 869.928 307.219C879.374 309.781 889.564 308.06 900.44 302.115C911.407 296.12 918.386 288.416 921.296 279.021V279.019C924.219 269.661 922.945 259.973 917.512 250.033C914.512 244.545 910.966 240.17 906.872 236.926V236.924C903.804 234.468 900.164 232.651 895.962 231.471C891.777 230.321 887.535 229.918 883.247 230.264L883.241 230.264ZM883.303 231.018C887.504 230.679 891.652 231.073 895.754 232.199C899.872 233.356 903.416 235.128 906.399 237.516C906.399 237.516 906.399 237.517 906.399 237.518C910.401 240.689 913.884 244.977 916.846 250.395C922.204 260.197 923.434 269.637 920.572 278.795C920.572 278.796 920.572 278.796 920.572 278.797C917.729 287.979 910.924 295.524 900.076 301.453C889.32 307.333 879.356 308.992 870.125 306.488V306.49C860.919 303.969 853.668 297.861 848.326 288.088C842.917 278.192 841.644 268.737 844.461 259.645C847.307 250.539 853.993 243.099 864.596 237.303C871.387 233.591 877.625 231.502 883.303 231.018ZM888.117 245.48C883.399 245.522 878.129 247.15 872.311 250.33C864.673 254.505 859.788 259.466 857.733 265.232C857.733 265.233 857.733 265.234 857.733 265.234C855.716 270.961 856.212 276.611 859.203 282.084C862.195 287.556 866.652 291.002 872.498 292.352C878.418 293.721 885.297 292.231 893.115 287.957C900.841 283.734 905.729 278.853 907.701 273.287V273.285C909.682 267.771 909.112 262.14 906.024 256.49C902.934 250.839 898.454 247.306 892.651 245.969C891.201 245.629 889.69 245.467 888.117 245.48ZM888.117 246.236C889.636 246.222 891.089 246.38 892.477 246.705C898.081 247.996 902.352 251.352 905.358 256.852C908.364 262.352 908.897 267.713 906.987 273.031C906.987 273.032 906.987 273.033 906.987 273.033C905.1 278.36 900.381 283.123 892.752 287.293C885.032 291.513 878.343 292.929 872.666 291.615C867.01 290.31 862.768 287.034 859.864 281.721C856.96 276.409 856.492 271.03 858.444 265.486V265.484C860.418 259.947 865.137 255.111 872.672 250.992C878.417 247.852 883.562 246.278 888.117 246.236ZM33.2892 302.082C33.1942 302.052 33.0909 302.06 33.002 302.105C32.9131 302.151 32.8457 302.229 32.8146 302.324L28.0627 316.99C28.0473 317.037 28.0413 317.087 28.0452 317.137C28.049 317.186 28.0626 317.234 28.0851 317.279C28.1076 317.323 28.1385 317.362 28.1763 317.395C28.214 317.427 28.2577 317.451 28.3049 317.467L56.5334 326.613L47.4572 354.631L19.2267 345.484C19.1794 345.469 19.1295 345.463 19.0799 345.467C19.0304 345.471 18.982 345.485 18.9377 345.507C18.8935 345.53 18.8541 345.561 18.822 345.599C18.7898 345.637 18.7654 345.681 18.7502 345.728L13.9982 360.395C13.9829 360.442 13.977 360.492 13.981 360.541C13.985 360.591 13.9987 360.639 14.0214 360.683C14.044 360.728 14.0752 360.767 14.1132 360.799C14.1511 360.831 14.195 360.856 14.2424 360.871L86.8791 384.404C86.9263 384.42 86.976 384.426 87.0255 384.422C87.075 384.418 87.1233 384.404 87.1675 384.382C87.2118 384.359 87.2512 384.328 87.2834 384.291C87.3157 384.253 87.3403 384.209 87.3556 384.162L92.1076 369.496C92.1229 369.449 92.1288 369.399 92.1248 369.349C92.1208 369.3 92.1071 369.251 92.0845 369.207C92.0618 369.163 92.0306 369.123 91.9927 369.091C91.9547 369.059 91.9108 369.035 91.8635 369.02L60.4611 358.846L69.5412 330.828L100.942 341.002C100.989 341.017 101.039 341.023 101.088 341.019C101.138 341.015 101.186 341.001 101.231 340.979C101.275 340.956 101.314 340.925 101.346 340.887C101.379 340.849 101.403 340.805 101.418 340.758L106.17 326.092C106.2 325.996 106.192 325.893 106.146 325.804C106.1 325.715 106.021 325.648 105.926 325.617L33.2892 302.082ZM33.4162 302.918L105.334 326.219L100.815 340.168L69.4142 329.992C69.3192 329.962 69.2159 329.97 69.127 330.015C69.0381 330.061 68.9707 330.139 68.9396 330.234L59.6271 358.973C59.6118 359.02 59.6059 359.07 59.6099 359.119C59.6139 359.169 59.6276 359.217 59.6503 359.262C59.6729 359.306 59.7041 359.345 59.7421 359.377C59.78 359.41 59.8239 359.434 59.8713 359.449L91.2717 369.621L86.7521 383.568L14.8342 360.268L19.3517 346.32L47.5822 355.467C47.6294 355.482 47.6791 355.488 47.7286 355.484C47.7781 355.48 47.8264 355.467 47.8707 355.444C47.9149 355.422 47.9543 355.391 47.9866 355.353C48.0188 355.315 48.0434 355.272 48.0588 355.225L57.3693 326.486C57.3847 326.439 57.3907 326.389 57.3868 326.34C57.383 326.29 57.3694 326.242 57.3469 326.198C57.3244 326.154 57.2934 326.114 57.2557 326.082C57.218 326.05 57.1743 326.025 57.1271 326.01L28.8986 316.865L33.4162 302.918ZM946.817 311.228C946.764 311.205 946.708 311.194 946.65 311.196C946.593 311.197 946.537 311.212 946.486 311.238L876.899 347.567C876.823 347.606 876.763 347.67 876.729 347.747C876.694 347.825 876.686 347.912 876.707 347.994L880.791 364.205C880.811 364.286 880.858 364.358 880.923 364.41C880.988 364.462 881.069 364.491 881.153 364.492L938.789 365.227L888.391 393.229C888.318 393.269 888.261 393.332 888.227 393.409C888.194 393.485 888.187 393.57 888.207 393.651L892.203 409.51C892.224 409.592 892.272 409.665 892.339 409.716C892.405 409.768 892.488 409.796 892.572 409.795L971.143 409.125C971.2 409.125 971.256 409.111 971.308 409.086C971.359 409.06 971.404 409.024 971.439 408.978C971.474 408.933 971.498 408.88 971.51 408.824C971.521 408.768 971.52 408.71 971.506 408.655L967.715 393.604C967.694 393.52 967.645 393.446 967.576 393.394C967.507 393.342 967.422 393.316 967.336 393.319L914.363 394.934L961.395 369.686C961.469 369.646 961.528 369.582 961.562 369.505C961.596 369.428 961.603 369.342 961.582 369.26L957.104 351.483C957.084 351.402 957.037 351.329 956.972 351.278C956.907 351.226 956.826 351.197 956.742 351.196L904.028 350.494L950.686 327.215C950.763 327.176 950.825 327.113 950.861 327.034C950.896 326.955 950.904 326.867 950.883 326.783L947.028 311.481C947.014 311.426 946.987 311.374 946.951 311.331C946.914 311.287 946.868 311.252 946.817 311.228ZM946.412 312.129L950.076 326.674L902.301 350.512C902.225 350.549 902.164 350.611 902.127 350.688C902.091 350.765 902.081 350.851 902.1 350.934C902.119 351.017 902.165 351.091 902.23 351.144C902.296 351.198 902.378 351.227 902.463 351.228L956.442 351.947L960.778 369.158L912.588 395.027C912.513 395.068 912.453 395.132 912.42 395.211C912.386 395.289 912.379 395.376 912.402 395.459C912.424 395.541 912.473 395.614 912.542 395.664C912.61 395.715 912.694 395.741 912.779 395.738L967.057 394.082L970.656 408.373L892.863 409.037L889.012 393.748L940.397 365.197C940.47 365.157 940.527 365.094 940.561 365.017C940.594 364.941 940.601 364.855 940.581 364.774C940.561 364.693 940.514 364.621 940.449 364.57C940.383 364.518 940.302 364.489 940.219 364.488L881.453 363.74L877.512 348.098L946.412 312.129ZM7.65447 391.455C7.55504 391.444 7.45524 391.472 7.37688 391.535C7.29853 391.597 7.24804 391.688 7.2365 391.787L0.455254 452.084C0.449696 452.133 0.453923 452.183 0.467705 452.231C0.481488 452.279 0.504556 452.323 0.535576 452.362C0.566597 452.401 0.604966 452.433 0.648491 452.457C0.692017 452.481 0.739848 452.496 0.789238 452.502L13.6252 453.945C13.7246 453.957 13.8244 453.928 13.9028 453.866C13.9811 453.803 14.0316 453.713 14.0431 453.613L16.5314 431.475L79.1974 438.52C79.2969 438.531 79.3967 438.502 79.475 438.44C79.5534 438.378 79.6039 438.287 79.6154 438.187L81.3381 422.867C81.3436 422.818 81.3394 422.768 81.3256 422.72C81.3118 422.672 81.2888 422.628 81.2577 422.589C81.2267 422.55 81.1884 422.518 81.1448 422.494C81.1013 422.47 81.0535 422.455 81.0041 422.449L18.34 415.402L20.8224 393.314C20.8331 393.215 20.8042 393.116 20.7421 393.038C20.6799 392.96 20.5894 392.91 20.4904 392.898L7.65447 391.455ZM7.94354 392.248L20.0295 393.607L17.5451 415.693C17.5395 415.743 17.5438 415.793 17.5575 415.84C17.5713 415.888 17.5944 415.933 17.6254 415.972C17.6564 416.01 17.6948 416.043 17.7383 416.067C17.7819 416.091 17.8297 416.106 17.8791 416.111L80.5431 423.156L78.9064 437.727L16.2404 430.68C16.191 430.674 16.1411 430.678 16.0933 430.692C16.0456 430.706 16.001 430.729 15.9622 430.76C15.9233 430.791 15.891 430.829 15.8671 430.873C15.8431 430.916 15.8279 430.964 15.8224 431.014L13.3342 453.152L1.25018 451.793L7.94354 392.248ZM959.977 502.178C959.927 502.171 959.877 502.174 959.829 502.187C959.781 502.199 959.736 502.221 959.697 502.251C959.657 502.282 959.624 502.319 959.599 502.362C959.574 502.405 959.558 502.453 959.551 502.502L956.557 524.578L894.069 516.104C893.969 516.09 893.869 516.117 893.79 516.178C893.71 516.239 893.658 516.329 893.645 516.428L891.572 531.705C891.559 531.804 891.586 531.905 891.647 531.984C891.708 532.063 891.798 532.116 891.897 532.129L954.383 540.604L951.397 562.629C951.384 562.728 951.41 562.828 951.471 562.908C951.532 562.987 951.622 563.039 951.721 563.053L964.52 564.789C964.569 564.796 964.619 564.793 964.667 564.78C964.715 564.767 964.76 564.745 964.8 564.715C964.839 564.685 964.873 564.648 964.898 564.605C964.923 564.562 964.939 564.514 964.945 564.465L973.1 504.338C973.113 504.239 973.086 504.138 973.025 504.059C972.964 503.98 972.875 503.927 972.776 503.914L959.977 502.178ZM960.248 502.977L972.299 504.611L964.248 563.99L952.197 562.355L955.184 540.33C955.197 540.231 955.17 540.131 955.109 540.051C955.048 539.972 954.959 539.92 954.86 539.906L892.371 531.432L894.342 516.904L956.83 525.377C956.88 525.384 956.93 525.381 956.978 525.368C957.026 525.355 957.071 525.333 957.11 525.303C957.15 525.273 957.183 525.235 957.208 525.192C957.233 525.149 957.249 525.102 957.256 525.053L960.248 502.977ZM1.69915 526.312C1.64211 526.312 1.58568 526.324 1.53405 526.348C1.48242 526.373 1.43694 526.408 1.40105 526.453C1.36517 526.497 1.33976 526.549 1.32678 526.604C1.31379 526.66 1.31358 526.718 1.3261 526.773L4.77337 541.906C4.79232 541.99 4.83942 542.065 4.90691 542.119C4.97441 542.173 5.05825 542.202 5.14446 542.201L58.1445 541.789L10.5488 565.963C10.4739 566.001 10.4138 566.063 10.3781 566.139C10.3424 566.215 10.333 566.301 10.3515 566.383L14.4238 584.258C14.4421 584.339 14.4869 584.413 14.5512 584.466C14.6155 584.519 14.6957 584.55 14.7792 584.553L67.4628 586.453L20.289 608.666C20.2112 608.703 20.1482 608.765 20.1106 608.842C20.0729 608.92 20.0628 609.008 20.082 609.092L23.5878 624.479C23.6007 624.534 23.6259 624.586 23.6616 624.63C23.6973 624.675 23.7426 624.71 23.7941 624.735C23.8455 624.759 23.9018 624.772 23.9588 624.771C24.0158 624.771 24.0719 624.758 24.123 624.732L94.5195 589.996C94.5954 589.959 94.6566 589.896 94.693 589.82C94.7295 589.743 94.7393 589.657 94.7206 589.574L91.0077 573.273C90.9894 573.192 90.9446 573.119 90.8803 573.065C90.816 573.012 90.7358 572.981 90.6523 572.979L33.0507 570.934L84.0683 544.086C84.1424 544.047 84.2016 543.985 84.2366 543.909C84.2716 543.833 84.2804 543.748 84.2617 543.666L80.6288 527.721C80.6098 527.638 80.5637 527.565 80.4978 527.511C80.4319 527.458 80.3502 527.429 80.2656 527.428L1.69915 526.312ZM2.16985 527.074L79.957 528.18L83.4609 543.551L31.4394 570.926C31.3654 570.964 31.3062 571.026 31.2712 571.102C31.2361 571.178 31.2271 571.263 31.2457 571.345C31.2642 571.426 31.3092 571.499 31.3735 571.552C31.4379 571.605 31.518 571.636 31.6015 571.639L90.3339 573.725L93.9179 589.451L24.2167 623.844L20.8867 609.219L69.1913 586.475C69.2674 586.438 69.3292 586.378 69.3668 586.302C69.4044 586.227 69.4157 586.141 69.3989 586.058C69.382 585.975 69.338 585.901 69.2739 585.846C69.2097 585.791 69.1291 585.76 69.0449 585.756L15.0956 583.807L11.1542 566.504L59.9179 541.736C59.9938 541.698 60.0544 541.635 60.0899 541.557C60.1254 541.48 60.1338 541.393 60.1137 541.31C60.0936 541.227 60.0461 541.154 59.9791 541.102C59.912 541.049 59.8292 541.021 59.7441 541.021L5.44329 541.441L2.16985 527.074ZM885.164 570.029C885.117 570.013 885.067 570.006 885.018 570.008C884.968 570.011 884.919 570.024 884.875 570.045C884.83 570.067 884.79 570.097 884.756 570.134C884.723 570.171 884.698 570.215 884.682 570.262L879.6 584.816C879.567 584.911 879.573 585.015 879.616 585.105C879.66 585.195 879.738 585.264 879.832 585.297L910.994 596.18L901.285 623.984L870.123 613.104C870.076 613.087 870.026 613.08 869.977 613.083C869.927 613.085 869.878 613.098 869.833 613.12C869.789 613.141 869.749 613.171 869.715 613.209C869.682 613.246 869.657 613.289 869.641 613.336L864.559 627.891C864.542 627.938 864.535 627.987 864.538 628.037C864.54 628.087 864.553 628.135 864.575 628.18C864.596 628.225 864.626 628.265 864.664 628.298C864.701 628.331 864.744 628.357 864.791 628.373L936.877 653.543C936.924 653.559 936.974 653.567 937.023 653.564C937.073 653.561 937.122 653.549 937.166 653.527C937.211 653.505 937.251 653.475 937.284 653.438C937.318 653.401 937.343 653.358 937.359 653.311L942.441 638.756C942.474 638.661 942.468 638.558 942.424 638.468C942.381 638.378 942.303 638.308 942.209 638.275L914.193 628.492L923.902 600.688L951.918 610.469C952.012 610.501 952.116 610.495 952.206 610.452C952.296 610.408 952.365 610.331 952.398 610.236L957.482 595.682C957.499 595.635 957.506 595.585 957.503 595.535C957.5 595.486 957.488 595.437 957.466 595.392C957.445 595.347 957.415 595.307 957.377 595.274C957.34 595.241 957.297 595.216 957.25 595.199L885.164 570.029ZM885.269 570.867L956.643 595.789L951.81 609.631L923.795 599.848C923.748 599.831 923.698 599.824 923.648 599.827C923.599 599.83 923.55 599.842 923.505 599.864C923.461 599.885 923.421 599.916 923.387 599.953C923.354 599.99 923.329 600.033 923.312 600.08L913.355 628.6C913.339 628.647 913.332 628.696 913.335 628.746C913.337 628.796 913.35 628.844 913.372 628.889C913.393 628.934 913.423 628.974 913.46 629.007C913.498 629.04 913.541 629.066 913.588 629.082L941.603 638.863L936.769 652.705L865.396 627.783L870.23 613.941L901.393 624.822C901.487 624.855 901.59 624.849 901.68 624.806C901.77 624.763 901.84 624.686 901.873 624.592L911.832 596.07C911.865 595.976 911.859 595.872 911.815 595.782C911.771 595.692 911.694 595.623 911.6 595.59L880.437 584.709L885.269 570.867ZM93.3827 629.213C86.0311 628.73 78.2157 630.635 69.9609 634.91C58.8627 640.658 51.7134 648.206 48.5937 657.533C45.4604 666.824 46.517 676.54 51.7265 686.6C54.6035 692.155 58.0508 696.606 62.0722 699.941C65.0845 702.465 68.6843 704.365 72.8593 705.639C72.86 705.639 72.8607 705.639 72.8613 705.639C77.0195 706.881 81.2499 707.38 85.5449 707.131C85.5456 707.131 85.5462 707.131 85.5469 707.131C91.3717 706.765 97.7514 704.776 104.691 701.182C115.545 695.561 122.569 688.116 125.689 678.867C125.689 678.867 125.689 678.866 125.689 678.865C128.777 669.636 127.673 659.906 122.416 649.756C117.223 639.727 109.929 633.281 100.58 630.494C100.579 630.494 100.579 630.494 100.578 630.494C98.2317 629.801 95.8333 629.374 93.3827 629.213ZM93.3281 629.965C95.7254 630.123 98.0701 630.541 100.363 631.219C109.511 633.946 116.622 640.214 121.744 650.104C126.93 660.118 127.993 669.6 124.973 678.627C121.923 687.666 115.073 694.953 104.344 700.51C97.4713 704.069 91.1875 706.018 85.4999 706.375C81.2922 706.619 77.154 706.134 73.0781 704.916H73.076C68.9857 703.668 65.4845 701.815 62.5565 699.361C62.5558 699.361 62.5552 699.361 62.5545 699.361C58.6241 696.101 55.2377 691.735 52.3982 686.252C47.2606 676.331 46.2423 666.867 49.3084 657.775C49.3084 657.775 49.3084 657.774 49.3084 657.773C52.3566 648.658 59.3312 641.267 70.3084 635.582C78.4721 631.354 86.1359 629.49 93.3281 629.965ZM93.0702 644.703C88.2717 644.637 82.8991 646.157 76.9648 649.23C69.1456 653.28 64.1506 658.051 62.0546 663.572C59.9512 669.04 60.3944 674.683 63.3554 680.4C66.3174 686.12 70.7178 689.752 76.4902 691.219C82.2554 692.708 89.0735 691.38 96.9238 687.314C104.653 683.312 109.646 678.461 111.83 672.742C111.83 672.742 111.83 672.741 111.83 672.74C113.974 667.06 113.606 661.402 110.738 655.863C107.871 650.326 103.492 646.779 97.6777 645.299H97.6757C96.2043 644.924 94.6691 644.725 93.0702 644.703ZM93.0546 645.461C94.6005 645.482 96.0786 645.671 97.4902 646.031C103.115 647.463 107.284 650.832 110.068 656.209C112.853 661.586 113.199 666.973 111.123 672.473C109.025 677.965 104.202 682.693 96.5761 686.643C88.8249 690.657 82.1994 691.912 76.6796 690.486C76.679 690.486 76.6783 690.486 76.6776 690.486C71.1033 689.07 66.9094 685.618 64.0272 680.053C61.1444 674.486 60.7322 669.116 62.7617 663.842C62.7617 663.841 62.7617 663.84 62.7617 663.84C64.7674 658.556 69.5918 653.901 77.3124 649.902C83.1717 646.868 88.4169 645.399 93.0546 645.461ZM855.232 648.037C855.147 647.986 855.044 647.971 854.947 647.995C854.85 648.019 854.766 648.08 854.715 648.166L824.744 697.908C824.693 697.994 824.677 698.096 824.701 698.193C824.725 698.29 824.786 698.374 824.871 698.426L835.891 705.064C835.933 705.09 835.98 705.107 836.029 705.115C836.078 705.123 836.128 705.12 836.177 705.109C836.225 705.097 836.27 705.076 836.31 705.046C836.351 705.017 836.384 704.98 836.41 704.938L858.228 668.725L875.381 679.059L855.793 711.568C855.767 711.611 855.75 711.658 855.743 711.707C855.735 711.756 855.738 711.807 855.75 711.855C855.762 711.903 855.783 711.949 855.812 711.989C855.842 712.029 855.879 712.062 855.922 712.088L866.941 718.727C867.027 718.778 867.13 718.793 867.227 718.769C867.324 718.745 867.407 718.683 867.459 718.598L887.049 686.088L900.898 694.434L879.832 729.398C879.781 729.484 879.765 729.587 879.789 729.684C879.814 729.781 879.875 729.864 879.961 729.916L891.025 736.582C891.111 736.633 891.214 736.649 891.311 736.624C891.408 736.6 891.491 736.539 891.543 736.453L920.762 687.961C920.813 687.875 920.828 687.773 920.804 687.676C920.78 687.579 920.718 687.495 920.633 687.443L855.232 648.037ZM855.168 648.879L919.92 687.896L891.092 735.74L880.676 729.465L901.742 694.5C901.794 694.414 901.809 694.312 901.785 694.215C901.761 694.118 901.699 694.034 901.614 693.982L887.116 685.246C887.073 685.22 887.026 685.203 886.977 685.196C886.927 685.188 886.877 685.191 886.829 685.203C886.781 685.215 886.735 685.236 886.695 685.266C886.655 685.295 886.622 685.332 886.596 685.375L867.008 717.885L856.637 711.635L876.225 679.125C876.251 679.082 876.268 679.035 876.275 678.986C876.283 678.937 876.28 678.887 876.268 678.839C876.256 678.79 876.235 678.745 876.205 678.705C876.176 678.665 876.139 678.631 876.096 678.605L858.295 667.881C858.209 667.83 858.107 667.814 858.01 667.838C857.913 667.863 857.829 667.924 857.778 668.01L835.957 704.223L825.586 697.975L855.168 648.879ZM149.461 699.35L90.9281 748.379C90.8899 748.411 90.8584 748.45 90.8354 748.494C90.8124 748.538 90.7984 748.586 90.794 748.636C90.7896 748.685 90.7951 748.735 90.8101 748.783C90.825 748.83 90.8492 748.874 90.8812 748.912L100.078 759.891C100.11 759.929 100.149 759.96 100.194 759.983C100.238 760.006 100.286 760.02 100.335 760.025C100.385 760.029 100.435 760.024 100.482 760.009C100.53 759.994 100.574 759.969 100.612 759.938L138.672 728.057L120.076 783.484C120.056 783.546 120.051 783.611 120.063 783.675C120.075 783.739 120.103 783.798 120.145 783.848L129.778 795.346C129.842 795.422 129.934 795.47 130.034 795.479C130.133 795.488 130.232 795.457 130.309 795.393L188.842 746.363C188.919 746.299 188.966 746.207 188.975 746.107C188.984 746.008 188.953 745.909 188.889 745.832L179.692 734.852C179.627 734.775 179.535 734.727 179.436 734.719C179.336 734.71 179.237 734.741 179.161 734.805L142.01 765.924L159.996 711.615C160.017 711.554 160.021 711.489 160.008 711.425C159.996 711.362 159.968 711.303 159.926 711.254L149.995 699.396C149.963 699.358 149.924 699.327 149.879 699.304C149.835 699.281 149.787 699.267 149.738 699.262C149.688 699.258 149.638 699.263 149.591 699.278C149.543 699.293 149.499 699.318 149.461 699.35ZM149.657 700.172L159.211 711.578L140.873 766.947C140.847 767.025 140.847 767.11 140.873 767.188C140.899 767.267 140.95 767.334 141.019 767.381C141.087 767.427 141.168 767.45 141.251 767.446C141.333 767.442 141.412 767.411 141.475 767.357L179.356 735.627L188.069 746.027L130.114 794.57L120.86 783.523L139.815 727.027C139.841 726.949 139.84 726.865 139.814 726.788C139.788 726.71 139.737 726.643 139.669 726.597C139.602 726.55 139.521 726.527 139.439 726.531C139.357 726.535 139.278 726.565 139.215 726.617L100.416 759.117L91.7035 748.715L149.657 700.172ZM786.545 743.246L775.186 753.67C775.113 753.738 775.069 753.832 775.065 753.932C775.061 754.032 775.097 754.13 775.165 754.203L796.846 777.832L773.639 799.129C773.566 799.197 773.522 799.291 773.517 799.391C773.513 799.491 773.548 799.588 773.615 799.662L782.35 809.18C782.418 809.253 782.512 809.297 782.612 809.301C782.712 809.305 782.809 809.269 782.883 809.201L806.09 787.906L817.799 800.666L790.869 825.377C790.833 825.411 790.803 825.451 790.782 825.496C790.761 825.541 790.749 825.59 790.747 825.64C790.745 825.689 790.752 825.739 790.769 825.786C790.786 825.833 790.813 825.876 790.846 825.912L799.579 835.428C799.612 835.465 799.653 835.494 799.698 835.515C799.743 835.536 799.792 835.548 799.841 835.551C799.891 835.553 799.941 835.545 799.988 835.528C800.034 835.511 800.077 835.485 800.114 835.451L838.68 800.061C838.754 799.993 838.798 799.899 838.802 799.799C838.806 799.699 838.771 799.601 838.703 799.527L787.08 743.27C787.047 743.233 787.006 743.203 786.961 743.182C786.916 743.161 786.867 743.149 786.818 743.147C786.768 743.144 786.718 743.152 786.671 743.169C786.625 743.186 786.582 743.212 786.545 743.246ZM786.78 744.059L837.891 799.76L799.879 834.639L791.659 825.678L818.588 800.967C818.662 800.899 818.706 800.805 818.71 800.705C818.714 800.605 818.679 800.507 818.611 800.434L806.393 787.117C806.359 787.08 806.318 787.051 806.273 787.03C806.228 787.008 806.18 786.996 806.13 786.994C806.08 786.992 806.03 787 805.984 787.017C805.937 787.034 805.894 787.06 805.857 787.094L782.65 808.389L774.428 799.43L797.635 778.135C797.671 778.101 797.701 778.061 797.722 778.016C797.743 777.971 797.755 777.922 797.757 777.872C797.76 777.822 797.752 777.773 797.735 777.726C797.718 777.679 797.691 777.636 797.658 777.6L775.977 753.971L786.78 744.059ZM240.6 793.375C237.1 793.248 233.772 793.901 230.631 795.334C226.452 797.24 223.139 800.066 220.717 803.793C218.059 807.883 216.684 811.903 216.621 815.838C216.511 819.768 217.478 823.544 219.514 827.137C219.514 827.137 219.513 827.139 219.514 827.139C219.514 827.14 219.516 827.14 219.516 827.141C221.504 830.744 225.162 835.315 230.496 840.897C235.807 846.454 238.815 850.481 239.506 852.744C240.062 854.571 239.873 856.14 238.947 857.565C237.926 859.137 236.521 859.938 234.609 860.033C231.587 860.19 228.22 859.088 224.508 856.676C220.911 854.339 218.735 851.896 217.914 849.385C217.913 849.383 217.911 849.381 217.91 849.379C217.043 846.876 217.355 843.845 218.916 840.25C218.952 840.166 218.957 840.071 218.928 839.984C218.9 839.896 218.841 839.822 218.762 839.775L205.465 831.943C205.379 831.893 205.277 831.878 205.18 831.903C205.083 831.927 205 831.989 204.949 832.074C201.288 838.16 200.349 844.384 202.164 850.652C203.956 856.923 208.93 862.673 217.012 867.924C221.964 871.142 226.701 873.157 231.223 873.953C235.714 874.73 239.872 874.287 243.66 872.613C243.66 872.613 243.66 872.612 243.66 872.611C247.39 870.952 250.348 868.453 252.506 865.133C255.851 859.985 256.694 854.277 255.029 848.113C253.832 843.685 250.301 838.386 244.467 832.143C239.954 827.307 237.105 824.128 235.955 822.65L235.953 822.648C234.276 820.456 233.378 818.571 233.217 817.037C233.217 817.034 233.217 817.03 233.217 817.027C233.007 815.481 233.36 814.011 234.303 812.56C235.773 810.297 238.05 808.984 241.248 808.599C244.357 808.229 247.97 809.345 252.09 812.021C255.967 814.541 258.38 817.492 259.392 820.884C260.374 824.251 259.913 828.251 257.949 832.912C257.912 832.999 257.909 833.098 257.942 833.187C257.974 833.276 258.039 833.35 258.123 833.394L271.496 840.343C271.54 840.366 271.589 840.38 271.639 840.384C271.689 840.388 271.739 840.382 271.787 840.367C271.835 840.351 271.879 840.326 271.916 840.293C271.954 840.26 271.985 840.22 272.008 840.175C275.847 832.404 276.828 825.152 274.9 818.474C274.9 818.474 274.9 818.473 274.9 818.472C272.951 811.815 267.869 805.845 259.726 800.554C254.136 796.922 248.949 794.652 244.154 793.761C242.951 793.546 241.766 793.417 240.6 793.375ZM237.246 794.258C239.423 794.005 241.679 794.087 244.019 794.506C248.684 795.372 253.786 797.595 259.318 801.189C267.364 806.417 272.294 812.251 274.178 818.686C276.015 825.054 275.11 831.972 271.48 839.48L258.744 832.863C260.627 828.248 261.142 824.161 260.123 820.67C260.123 820.669 260.123 820.669 260.123 820.668C259.05 817.074 256.492 813.977 252.508 811.389C248.3 808.654 244.518 807.45 241.164 807.85C237.803 808.254 235.268 809.695 233.674 812.148C232.651 813.722 232.242 815.397 232.473 817.117C232.473 817.118 232.472 817.118 232.473 817.119C232.658 818.874 233.636 820.857 235.361 823.111C235.362 823.112 235.363 823.113 235.363 823.113C236.561 824.652 239.401 827.817 243.92 832.658C243.92 832.659 243.92 832.66 243.92 832.66C249.712 838.858 253.164 844.099 254.303 848.311C255.921 854.301 255.113 859.737 251.875 864.721C249.795 867.922 246.966 870.317 243.357 871.922C239.711 873.533 235.722 873.964 231.355 873.209H231.353C226.958 872.435 222.314 870.467 217.426 867.291C209.436 862.1 204.616 856.477 202.892 850.443C202.892 850.443 202.892 850.442 202.892 850.441C201.167 844.482 202.029 838.631 205.435 832.801L218.131 840.279C216.651 843.834 216.283 846.973 217.197 849.619C218.095 852.366 220.416 854.916 224.098 857.309C227.897 859.777 231.416 860.955 234.65 860.787C236.761 860.681 238.447 859.721 239.582 857.975C240.624 856.371 240.837 854.517 240.23 852.523C239.439 849.931 236.382 845.96 231.045 840.375C225.732 834.816 222.106 830.268 220.178 826.772C220.177 826.77 220.176 826.769 220.176 826.768C218.2 823.282 217.27 819.654 217.377 815.859C217.377 815.858 217.377 815.857 217.377 815.855C217.436 812.086 218.751 808.207 221.351 804.205C223.697 800.595 226.885 797.873 230.945 796.021C232.97 795.098 235.07 794.51 237.248 794.258L237.246 794.258ZM726.971 798.969C725.104 798.814 723.136 798.87 721.07 799.133C716.885 799.713 711.7 801.935 705.469 805.777C700.299 808.965 696.496 812.209 694.064 815.535C694.064 815.536 694.064 815.537 694.064 815.537C691.664 818.874 690.187 822.273 689.652 825.723C689.088 829.189 689.458 832.788 690.752 836.496C692.05 840.216 695.103 845.949 699.92 853.762L720.969 887.898C721.021 887.984 721.106 888.044 721.203 888.067C721.3 888.09 721.403 888.074 721.488 888.022L734.611 879.93C734.696 879.877 734.757 879.793 734.78 879.695C734.803 879.598 734.787 879.495 734.734 879.41L712.564 843.455C709.398 838.32 707.327 834.527 706.363 832.119C705.414 829.749 705.394 827.281 706.312 824.65C706.312 824.65 706.312 824.649 706.312 824.648C707.234 822.09 709.504 819.661 713.183 817.393C716.799 815.163 720.102 814.21 723.109 814.482C723.11 814.482 723.109 814.482 723.109 814.482C726.126 814.806 728.681 816.08 730.828 818.336C732.119 819.733 734.526 823.257 737.964 828.834L759.669 864.035C759.722 864.12 759.806 864.181 759.904 864.204C760.001 864.227 760.104 864.211 760.189 864.158L773.312 856.066C773.397 856.014 773.458 855.929 773.481 855.832C773.504 855.735 773.488 855.632 773.435 855.547L752.058 820.877C747.567 813.594 743.743 808.345 740.552 805.111C740.552 805.111 740.552 805.11 740.552 805.109C738.368 802.917 735.603 801.236 732.275 800.062C730.611 799.488 728.845 799.123 726.978 798.969L726.971 798.969ZM726.907 799.723C728.715 799.872 730.421 800.224 732.022 800.777C735.258 801.919 737.917 803.542 740.012 805.645C743.127 808.802 746.938 814.019 751.412 821.275L772.59 855.623L760.112 863.318L738.606 828.438C735.158 822.845 732.776 819.332 731.375 817.818C731.375 817.817 731.375 817.816 731.375 817.814C729.119 815.443 726.372 814.071 723.188 813.73C723.184 813.73 723.181 813.73 723.178 813.73C719.962 813.437 716.493 814.459 712.781 816.748C709.014 819.071 706.597 821.609 705.594 824.396C705.594 824.398 705.594 824.399 705.594 824.4C704.625 827.176 704.642 829.864 705.659 832.4C706.66 834.9 708.743 838.703 711.919 843.854L733.889 879.486L721.409 887.18L700.559 853.365C695.754 845.572 692.719 839.845 691.464 836.246C690.204 832.638 689.852 829.176 690.395 825.842C690.395 825.84 690.395 825.839 690.395 825.838C690.909 822.523 692.33 819.24 694.673 815.982V815.978C697.021 812.768 700.75 809.575 705.864 806.422C712.045 802.611 717.16 800.439 721.167 799.883C723.186 799.626 725.098 799.573 726.907 799.723ZM301.332 825.809C301.287 825.787 301.239 825.775 301.189 825.773C301.139 825.77 301.089 825.778 301.043 825.795C300.996 825.812 300.953 825.838 300.916 825.871C300.879 825.905 300.85 825.945 300.828 825.99L268.434 895.133C268.392 895.224 268.387 895.328 268.422 895.422C268.456 895.516 268.527 895.593 268.617 895.635L282.577 902.176C282.622 902.197 282.67 902.209 282.72 902.212C282.77 902.214 282.819 902.207 282.866 902.19C282.913 902.173 282.956 902.147 282.993 902.113C283.03 902.08 283.059 902.039 283.08 901.994L315.475 832.852C315.517 832.761 315.522 832.657 315.487 832.563C315.453 832.468 315.382 832.392 315.291 832.35L301.332 825.809ZM301.353 826.654L314.629 832.875L282.555 901.332L269.279 895.111L301.353 826.654ZM644.279 838.182L629.881 843.693C629.787 843.729 629.712 843.801 629.671 843.893C629.631 843.984 629.628 844.088 629.664 844.182L652.207 903.072L631.449 911.02C631.356 911.056 631.28 911.127 631.24 911.219C631.199 911.31 631.196 911.414 631.232 911.508L635.849 923.57C635.867 923.617 635.894 923.659 635.928 923.695C635.962 923.732 636.003 923.761 636.048 923.781C636.094 923.801 636.143 923.812 636.192 923.814C636.242 923.815 636.291 923.807 636.338 923.789L693.006 902.096C693.099 902.06 693.174 901.988 693.215 901.896C693.256 901.805 693.259 901.701 693.223 901.607L688.605 889.545C688.569 889.451 688.498 889.376 688.406 889.335C688.315 889.295 688.211 889.292 688.117 889.328L667.31 897.291L644.767 838.4C644.75 838.354 644.723 838.311 644.689 838.275C644.655 838.239 644.614 838.21 644.569 838.19C644.523 838.169 644.474 838.158 644.425 838.157C644.375 838.155 644.326 838.164 644.279 838.182ZM644.195 839.021L666.74 897.914C666.758 897.961 666.784 898.003 666.818 898.039C666.853 898.075 666.893 898.104 666.939 898.125C666.984 898.145 667.033 898.156 667.083 898.158C667.133 898.159 667.182 898.151 667.228 898.133L688.035 890.168L692.383 901.525L636.42 922.947L632.072 911.59L652.83 903.645C652.876 903.627 652.919 903.6 652.955 903.566C652.991 903.532 653.02 903.491 653.041 903.446C653.061 903.4 653.072 903.351 653.073 903.302C653.075 903.252 653.066 903.203 653.049 903.156L630.504 844.264L644.195 839.021ZM370.035 853.391C369.986 853.38 369.936 853.38 369.888 853.389C369.839 853.398 369.792 853.417 369.751 853.444C369.709 853.472 369.673 853.507 369.645 853.548C369.617 853.589 369.598 853.635 369.588 853.684L366.935 866.271C366.915 866.369 366.934 866.471 366.988 866.555C367.043 866.639 367.129 866.698 367.226 866.719L408.598 875.434L404.471 895.029L367.33 887.205C367.281 887.195 367.231 887.194 367.182 887.203C367.133 887.212 367.086 887.231 367.044 887.258C367.003 887.285 366.967 887.321 366.939 887.362C366.91 887.403 366.891 887.449 366.881 887.498L364.23 900.086C364.21 900.184 364.229 900.286 364.283 900.37C364.338 900.454 364.423 900.512 364.521 900.533L401.662 908.357L398.33 924.182L358.385 915.768C358.287 915.747 358.185 915.766 358.101 915.821C358.017 915.875 357.958 915.961 357.937 916.059L355.275 928.699C355.255 928.797 355.274 928.899 355.328 928.983C355.383 929.067 355.468 929.126 355.566 929.146L410.967 940.816C411.015 940.827 411.065 940.827 411.114 940.818C411.163 940.809 411.209 940.79 411.251 940.763C411.293 940.735 411.328 940.7 411.356 940.659C411.384 940.618 411.404 940.572 411.414 940.523L427.152 865.809C427.173 865.711 427.154 865.609 427.099 865.525C427.045 865.441 426.959 865.382 426.861 865.361L370.035 853.391ZM370.248 854.209L426.334 866.023L410.752 939.998L356.094 928.484L358.599 916.584L398.543 924.998C398.641 925.019 398.743 924.999 398.827 924.945C398.91 924.89 398.969 924.805 398.99 924.707L402.48 908.143C402.49 908.094 402.491 908.044 402.482 907.995C402.473 907.946 402.454 907.9 402.426 907.858C402.399 907.817 402.364 907.781 402.323 907.753C402.282 907.725 402.236 907.705 402.187 907.695L365.047 899.871L367.543 888.023L404.683 895.848C404.732 895.858 404.782 895.858 404.831 895.849C404.88 895.84 404.926 895.821 404.968 895.794C405.009 895.767 405.045 895.732 405.073 895.69C405.101 895.649 405.121 895.603 405.131 895.555L409.416 875.221C409.426 875.172 409.427 875.122 409.418 875.073C409.409 875.024 409.39 874.977 409.363 874.935C409.336 874.893 409.3 874.857 409.259 874.829C409.218 874.801 409.172 874.782 409.123 874.771L367.754 866.059L370.248 854.209ZM571.51 859.473C568.686 859.562 565.477 859.939 561.877 860.598C555.902 861.691 551.178 863.333 547.705 865.549C544.257 867.787 541.648 870.417 539.896 873.438C538.111 876.463 537.15 879.95 537.01 883.875C536.869 887.812 537.63 894.263 539.281 903.291L546.498 942.74C546.507 942.789 546.525 942.836 546.552 942.878C546.579 942.919 546.614 942.955 546.654 942.984C546.695 943.012 546.741 943.032 546.79 943.042C546.838 943.053 546.888 943.054 546.937 943.045L562.103 940.269C562.202 940.251 562.289 940.195 562.346 940.112C562.402 940.03 562.424 939.928 562.406 939.83L554.807 898.279C553.721 892.345 553.169 888.059 553.144 885.465C553.12 882.913 553.996 880.606 555.807 878.488V878.486C557.595 876.437 560.591 874.997 564.844 874.219C569.022 873.454 572.448 873.767 575.15 875.113C577.844 876.51 579.762 878.623 580.943 881.504C580.943 881.504 580.943 881.505 580.943 881.506C581.639 883.276 582.602 887.434 583.781 893.879L591.223 934.559C591.231 934.607 591.25 934.654 591.277 934.696C591.304 934.738 591.338 934.774 591.379 934.802C591.42 934.83 591.466 934.85 591.514 934.861C591.563 934.871 591.613 934.872 591.662 934.863L606.828 932.088C606.877 932.079 606.924 932.061 606.965 932.034C607.007 932.007 607.043 931.972 607.071 931.931C607.1 931.89 607.12 931.845 607.13 931.796C607.141 931.747 607.142 931.697 607.133 931.648L599.803 891.584C598.263 883.167 596.606 876.887 594.807 872.715C594.807 872.714 594.807 872.713 594.807 872.713C593.567 869.877 591.603 867.307 588.928 865.006C588.928 865.005 588.928 865.004 588.928 865.004C586.244 862.724 582.872 861.082 578.832 860.072C576.777 859.583 574.341 859.383 571.518 859.473L571.51 859.473ZM571.533 860.232C574.306 860.145 576.679 860.338 578.646 860.807C582.595 861.794 585.851 863.387 588.433 865.58C591.035 867.819 592.924 870.296 594.113 873.016C595.869 877.089 597.526 883.333 599.06 891.721L606.322 931.414L591.9 934.051L584.527 893.744C583.345 887.282 582.403 883.143 581.648 881.225C581.648 881.223 581.648 881.221 581.648 881.219C580.406 878.19 578.344 875.915 575.501 874.441C575.498 874.441 575.495 874.44 575.491 874.439C572.602 872.998 568.997 872.69 564.708 873.474C560.354 874.271 557.18 875.759 555.234 877.992C555.234 877.993 555.234 877.995 555.234 877.996C553.323 880.23 552.363 882.74 552.388 885.473C552.413 888.165 552.973 892.464 554.062 898.416L561.595 939.596L547.173 942.232L540.025 903.154C538.377 894.148 537.628 887.709 537.765 883.9C537.902 880.081 538.831 876.728 540.548 873.818C540.548 873.818 540.548 873.817 540.548 873.816C542.231 870.914 544.745 868.37 548.111 866.185V866.183C551.464 864.045 556.097 862.423 562.007 861.342C565.579 860.688 568.754 860.32 571.529 860.232L571.533 860.232ZM441.607 867.984C441.539 867.983 441.472 868 441.414 868.033C441.355 868.067 441.306 868.115 441.272 868.174C441.238 868.233 441.221 868.299 441.222 868.367C441.223 868.435 441.242 868.501 441.277 868.559L450.351 883.607C453.936 889.612 456.801 893.802 458.986 896.205C460.951 898.401 463.477 900.418 466.437 902.295C460.127 903.25 455.232 905.455 451.894 909.016C451.894 909.016 451.894 909.017 451.894 909.018C448.399 912.781 446.6 917.598 446.503 923.4C446.427 927.976 447.489 932.083 449.691 935.69C451.892 939.296 454.894 941.84 458.662 943.285C462.404 944.769 468.335 945.553 476.513 945.69L508.958 946.232C509.059 946.234 509.155 946.195 509.227 946.125C509.299 946.055 509.34 945.96 509.341 945.859L510.617 869.516C510.618 869.416 510.579 869.319 510.51 869.248C510.44 869.176 510.345 869.135 510.245 869.133L494.831 868.875C494.782 868.874 494.733 868.883 494.686 868.901C494.64 868.919 494.598 868.946 494.562 868.981C494.526 869.015 494.498 869.056 494.478 869.102C494.458 869.148 494.447 869.197 494.447 869.246L493.921 900.738L491.173 900.693C487.653 900.635 485.098 900.29 483.558 899.703C483.555 899.702 483.551 899.702 483.548 899.701C481.995 899.143 480.52 898.1 479.12 896.549C479.12 896.547 479.12 896.546 479.12 896.545C477.738 895.047 475.079 891.263 471.224 885.266C471.224 885.265 471.224 885.264 471.224 885.264L460.357 868.467C460.323 868.414 460.277 868.371 460.223 868.341C460.169 868.311 460.108 868.294 460.046 868.293L441.607 867.984ZM442.277 868.752L459.828 869.045L470.585 885.676C474.446 891.681 477.077 895.448 478.56 897.055C480.022 898.674 481.598 899.8 483.287 900.408C484.99 901.057 487.597 901.39 491.16 901.449L494.285 901.502C494.334 901.503 494.384 901.494 494.43 901.476C494.477 901.457 494.519 901.43 494.555 901.395C494.59 901.361 494.619 901.319 494.638 901.274C494.658 901.228 494.669 901.179 494.669 901.129L495.195 869.637L509.853 869.883L508.589 945.471L476.525 944.934C468.388 944.798 462.506 943.996 458.935 942.58C455.318 941.193 452.464 938.778 450.339 935.297C448.214 931.816 447.187 927.867 447.261 923.416C447.355 917.763 449.085 913.158 452.449 909.535V909.533C455.804 905.955 460.782 903.725 467.439 902.873C467.516 902.863 467.589 902.829 467.646 902.776C467.704 902.723 467.743 902.653 467.76 902.577C467.776 902.5 467.768 902.421 467.737 902.349C467.706 902.277 467.654 902.217 467.587 902.176C464.313 900.191 461.636 898.032 459.552 895.703C459.552 895.702 459.552 895.702 459.552 895.701C457.441 893.379 454.576 889.209 451.001 883.221C451.001 883.22 451.001 883.219 451.001 883.219L442.277 868.752ZM482.689 912.74C475.283 912.616 470.696 912.824 468.699 913.465C466.78 914.081 465.243 915.187 464.13 916.762C463.012 918.344 462.441 920.327 462.402 922.676C462.402 922.676 462.402 922.677 462.402 922.678C462.358 925.312 463.042 927.493 464.468 929.156C465.858 930.851 467.864 931.934 470.421 932.404C470.425 932.404 470.428 932.404 470.431 932.404C471.763 932.612 475.476 932.751 481.728 932.856L493.758 933.057C493.807 933.058 493.856 933.049 493.903 933.031C493.949 933.012 493.991 932.985 494.027 932.951C494.063 932.916 494.091 932.875 494.111 932.83C494.131 932.784 494.141 932.735 494.142 932.686L494.465 913.313C494.466 913.213 494.427 913.116 494.358 913.045C494.288 912.973 494.193 912.932 494.094 912.93L482.689 912.74ZM482.675 913.496L493.702 913.682L493.392 932.297L481.739 932.102C475.496 931.997 471.715 931.839 470.552 931.658C468.129 931.211 466.316 930.218 465.052 928.676C465.049 928.672 465.045 928.669 465.042 928.666C463.747 927.158 463.112 925.188 463.153 922.687C463.19 920.453 463.727 918.635 464.743 917.197C465.764 915.752 467.143 914.754 468.925 914.181C470.628 913.634 475.287 913.371 482.671 913.494L482.675 913.496Z" fill="#D92B44"/>
</g>
<defs>
<clipPath id="clip0_3_2">
<rect width="974" height="947" fill="white"/>
</clipPath>
</defs>
</svg>
