<svg viewBox="0 0 40 50" xmlns="http://www.w3.org/2000/svg" xmlns:svg="http://www.w3.org/2000/svg">
                    <path d="M 5.3457031,3.0039063 A 0.10001,0.10001 0 0 0 5.2460937,3.1054688 V 33.408203 a 0.10001,0.10001 0 0 0 0.099609,0.09961 h 6.1191413 a 0.10001,0.10001 0 0 0 0.09961,-0.09961 V 22.076172 h 3.890625 c 2.773335,0 4.892697,-0.143818 6.365234,-0.435547 a 0.10001,0.10001 0 0 0 0.002,0 c 1.089079,-0.237363 2.154592,-0.718486 3.197265,-1.441406 1.061304,-0.740121 1.933658,-1.75351 2.615235,-3.033203 0.684777,-1.285706 1.02539,-2.865835 1.02539,-4.738282 0,-2.4277525 -0.592278,-4.4169828 -1.779297,-5.9531246 C 25.698088,4.930519 24.223925,3.923091 22.466797,3.4628906 21.310276,3.1526046 18.889428,3.0039063 15.166016,3.0039063 Z m 0.1015625,0.2011718 h 9.7187504 c 3.71798,0 6.146541,0.1551221 7.25,0.4511719 1.715073,0.4491858 3.146902,1.4269254 4.30664,2.9414062 1.155642,1.4955369 1.736328,3.4347058 1.736328,5.8300778 0,1.84825 -0.334303,3.394651 -1,4.644532 -0.668899,1.255891 -1.519424,2.242292 -2.552734,2.96289 -1.024381,0.710237 -2.066298,1.178988 -3.126953,1.410156 -1.44886,0.286871 -3.5587,0.431641 -6.324219,0.431641 h -3.990234 a 0.10001,0.10001 0 0 0 -0.09961,0.09961 V 33.308594 H 5.4472656 Z m 6.0175784,4.9257813 a 0.10001,0.10001 0 0 0 -0.09961,0.099609 v 8.5996096 a 0.10001,0.10001 0 0 0 0.09961,0.09961 h 3.349609 c 2.415944,0 4.028833,-0.153321 4.873047,-0.482421 0.829553,-0.323386 1.481139,-0.833264 1.947266,-1.525391 0.479625,-0.69191 0.720703,-1.499628 0.720703,-2.412109 0,-1.122012 -0.333265,-2.059418 -0.998047,-2.7949226 -0.66193,-0.7323483 -1.50424,-1.192389 -2.515625,-1.375 -0.748375,-0.1412035 -2.212982,-0.208985 -4.419922,-0.208985 z m 0.09961,0.2011719 h 2.857422 c 2.202774,0 3.67047,0.068721 4.382812,0.203125 a 0.10001,0.10001 0 0 0 0.002,0.00195 c 0.972987,0.1756781 1.76892,0.6097379 2.402343,1.3105469 0.630571,0.6976528 0.945313,1.5792648 0.945313,2.6621098 0,0.878288 -0.226868,1.640606 -0.683594,2.298828 a 0.10001,0.10001 0 0 0 -0.002,0.002 c -0.443377,0.658347 -1.056986,1.14066 -1.853516,1.451172 -0.781868,0.304796 -2.393599,0.46875 -4.800781,0.46875 h -3.25 z"></path>
                 <path d="M 5.346667,33.407856 V 3.1048188 h 9.818515 q 5.58105,0 7.276036,0.4547523 2.60449,0.6821284 4.361488,2.9765603 1.756997,2.2737613 1.756997,5.8911086 0,2.790525 -1.012857,4.692217 -1.012858,1.901691 -2.58382,2.997231 -1.550292,1.074869 -3.162595,1.426268 -2.191079,0.434082 -6.345861,0.434082 H 11.465152 V 33.407856 Z M 11.465152,8.2311171 v 8.5989519 h 3.34863 q 3.617348,0 4.836911,-0.475423 1.219563,-0.475423 1.901691,-1.48828 0.702799,-1.012857 0.702799,-2.356444 0,-1.653644 -0.971516,-2.7285131 Q 20.312151,8.7065399 18.82387,8.4378227 17.728331,8.2311171 14.421042,8.2311171 Z"></path>
                </svg>