<svg viewBox="0 0 40 50" xmlns="http://www.w3.org/2000/svg" xmlns:svg="http://www.w3.org/2000/svg">
                    <path d="m 16.646484,2.7011719 c -4.266319,0 -7.7247075,1.411275 -10.3476559,4.2285156 -2.6243599,2.8055621 -3.9335937,6.7484565 -3.9335937,11.8085935 0,4.786116 1.3036447,8.576475 3.9140625,11.353516 2.6084553,2.761078 5.9475591,4.146484 9.9941401,4.146484 3.268549,0 5.973443,-0.806445 8.101563,-2.419922 2.142922,-1.628064 3.67031,-4.109187 4.583984,-7.43164 a 0.10001,0.10001 0 0 0 -0.06641,-0.121094 L 22.95898,22.384766 a 0.10001,0.10001 0 0 0 -0.126953,0.07227 c -0.506889,2.205651 -1.340125,3.81137 -2.490234,4.826172 -1.154117,1.018338 -2.525964,1.525391 -4.13086,1.525391 -2.180274,0 -3.935846,-0.798283 -5.296874,-2.404297 -1.3529943,-1.596533 -2.0449224,-4.302145 -2.0449224,-8.121094 0,-3.596701 0.6974439,-6.18312 2.0644534,-7.767578 1.388258,-1.5924135 3.180071,-2.3847656 5.402343,-2.3847656 1.607439,0 2.958576,0.4469839 4.070313,1.3417969 a 0.10001,0.10001 0 0 0 0.002,0 C 21.534001,10.367869 22.27091,11.58417 22.625,13.136719 a 0.10001,0.10001 0 0 0 0.121094,0.07617 l 6.05664,-1.447266 a 0.10001,0.10001 0 0 0 0.07227,-0.125 C 28.182651,9.2035545 27.142174,7.3265684 25.748047,6.015625 23.413594,3.8062319 20.373103,2.7011719 16.646484,2.7011719 Z m 0,0.1992187 c 3.687214,0 6.667144,1.0870048 8.962891,3.2597656 1.340588,1.2601527 2.34988,3.0785714 3.035156,5.4374998 l -5.861328,1.400391 C 22.411278,11.458381 21.667059,10.219579 20.53125,9.3164063 19.38326,8.3929403 17.980016,7.9296875 16.335937,7.9296875 c -2.270124,0 -4.129799,0.8209345 -5.552734,2.4531255 a 0.10001,0.10001 0 0 0 -0.002,0 c -1.4159427,1.64025 -2.1113281,4.277087 -2.1113281,7.90039 0,3.84293 0.6887186,6.594368 2.0917971,8.25 1.395042,1.646151 3.219777,2.474609 5.449218,2.474609 1.647269,10e-7 3.075127,-0.527455 4.263672,-1.576171 1.171761,-1.033907 2.002187,-2.655439 2.517578,-4.828125 l 5.736329,1.818359 c -0.908211,3.241138 -2.394679,5.658074 -4.47461,7.238281 -2.088669,1.583567 -4.744688,2.376953 -7.980469,2.376953 -4.001147,0 -7.2766503,-1.358526 -9.8496089,-4.082031 -2.5709968,-2.735103 -3.8574219,-6.466905 -3.8574218,-11.216797 0,-5.026398 1.2950049,-8.9121981 3.8789062,-11.6738279 C 9.0313399,4.2868684 12.424104,2.9003906 16.646484,2.9003906 Z"></path>
                 <path d="m 22.929396,22.479213 5.93245,1.881021 q -1.364257,4.960934 -4.547523,7.379389 -3.162595,2.397785 -8.040847,2.397785 -6.035803,0 -9.9218673,-4.113441 -3.8860648,-4.134112 -3.8860648,-11.286125 0,-7.565424 3.9067353,-11.7408763 3.9067358,-4.1961232 10.2732668,-4.1961232 5.56038,0 9.033034,3.2866187 2.067056,1.9430324 3.100583,5.5810508 L 22.72269,13.115451 Q 22.185256,10.759007 20.469599,9.3947503 18.774614,8.0304936 16.335488,8.0304936 q -3.369301,0 -5.477698,2.4184554 -2.0877261,2.418455 -2.0877261,7.834141 0,5.746415 2.0670561,8.185541 2.067055,2.439126 5.374345,2.439126 2.439125,0 4.196123,-1.550292 1.756997,-1.550292 2.521808,-4.878252 z"></path>
                </svg>