<svg viewBox="0 0 40 43" xmlns="http://www.w3.org/2000/svg" xmlns:svg="http://www.w3.org/2000/svg">
                    <path d="m 15.990234,2.4882813 c -2.477484,0 -4.668004,0.4016747 -6.5703121,1.2070312 C 7.9871476,4.293461 6.6660376,5.210511 5.4589844,6.4453125 4.2660372,7.679874 3.3226047,9.0750215 2.6289063,10.628906 a 0.10001,0.10001 0 0 0 0,0.002 c -0.9305968,2.111205 -1.3945313,4.713777 -1.3945313,7.810547 0,4.841507 1.3377285,8.662407 4.0175781,11.439453 2.6792595,2.762553 6.2938499,4.144532 10.8203129,4.144532 4.471695,0 8.059316,-1.389885 10.738281,-4.166016 2.67998,-2.791067 4.017578,-6.652352 4.017578,-11.5625 0,-4.951525 -1.350763,-8.8318987 -4.058594,-11.6230469 C 24.076824,3.8839608 20.47575,2.4882813 15.990234,2.4882813 Z m 0,0.1992187 c 4.444158,0 7.980695,1.3751635 10.634766,4.125 2.666509,2.7485558 4.003906,6.569163 4.003906,11.484375 0,4.873904 -1.323652,8.675191 -3.96289,11.423828 -2.640252,2.736013 -6.163335,4.103516 -10.59375,4.103516 -4.485892,0 -8.0358229,-1.360002 -10.6757816,-4.082032 -2.6393686,-2.735096 -3.9609375,-6.496036 -3.9609375,-11.300781 0,-3.076829 0.4590287,-5.652444 1.375,-7.730468 C 3.4948841,9.1780218 4.4262412,7.8023265 5.6035156,6.5839844 6.7936848,5.3669436 8.0909202,4.4655321 9.4960938,3.8789063 a 0.10001,0.10001 0 0 0 0.00195,0 C 11.371558,3.0857413 13.534352,2.6875 15.990234,2.6875 Z m 0.0625,5.0292969 c -2.544158,0 -4.610637,0.8829576 -6.1718746,2.6386721 -1.5657758,1.747518 -2.3417969,4.379672 -2.3417969,7.880859 0,3.446704 0.7963357,6.077384 2.4023438,7.878906 1.6017867,1.782859 3.6480987,2.679688 6.1113277,2.679688 2.463041,0 4.493943,-0.888726 6.06836,-2.658203 1.592896,-1.788515 2.382812,-4.455482 2.382812,-7.984375 0,-3.487333 -0.768239,-6.104044 -2.320312,-7.837891 -1.534108,-1.7293583 -3.586468,-2.5976561 -6.13086,-2.5976561 z m 0,0.2011718 c 2.499219,0 4.482899,0.8411267 5.980469,2.5292973 1.507167,1.683681 2.269531,4.24711 2.269531,7.705078 0,3.499089 -0.781053,6.112306 -2.330078,7.851562 -1.539944,1.730735 -3.504715,2.591797 -5.919922,2.591797 -2.414444,0 -4.393419,-0.8692 -5.960937,-2.613281 -1.563474,-1.75381 -2.3515626,-4.33018 -2.3515626,-7.746094 0,-3.471674 0.7680382,-6.050475 2.2890626,-7.748047 1.525433,-1.7161116 3.524583,-2.5703123 6.023437,-2.5703123 z"></path>
                 <path d="m 1.3347462,18.442372 q 0,-4.630204 1.3849274,-7.772129 Q 3.7532014,8.3551404 5.5308694,6.5154608 7.3292079,4.6757812 9.4582753,3.7869472 12.290142,2.5880549 15.990171,2.5880549 q 6.697261,0 10.707349,4.154782 4.030759,4.1547821 4.030759,11.5548421 0,7.338047 -3.989418,11.492829 -3.989417,4.134112 -10.666007,4.134112 -6.7592726,0 -10.7486902,-4.113441 Q 1.3347462,25.677068 1.3347462,18.442372 Z m 6.30452,-0.206705 q 0,5.146969 2.3771138,7.813471 2.377114,2.645831 6.035803,2.645831 3.658689,0 5.994462,-2.625161 2.356443,-2.645831 2.356443,-7.916823 0,-5.208981 -2.294432,-7.77213 -2.273761,-2.5631491 -6.056473,-2.5631491 -3.782712,0 -6.0978144,2.6044901 -2.3151024,2.58382 -2.3151024,7.813471 z"></path>
                </svg>