<svg viewBox="0 0 40 45" xmlns="http://www.w3.org/2000/svg" xmlns:svg="http://www.w3.org/2000/svg">
                    <path d="M 1.7792969,3.0039063 A 0.10001,0.10001 0 0 0 1.6953125,3.1582031 L 12.779297,20.683594 v 12.724609 a 0.10001,0.10001 0 0 0 0.09961,0.09961 h 6.097656 a 0.10001,0.10001 0 0 0 0.09961,-0.09961 V 20.724609 L 30.203125,3.1582031 a 0.10001,0.10001 0 0 0 -0.08398,-0.1542968 h -7.048829 a 0.10001,0.10001 0 0 0 -0.08594,0.050781 L 16.082031,14.894531 9.0371094,3.0527344 A 0.10001,0.10001 0 0 0 8.9511719,3.0039063 Z M 1.9609375,3.2050781 H 8.8945313 L 15.998047,15.144531 a 0.10001,0.10001 0 0 0 0.171875,0 L 23.126953,3.2050781 h 6.808594 L 18.892578,20.642578 a 0.10001,0.10001 0 0 0 -0.01563,0.05273 V 33.308594 H 12.978516 V 20.654297 a 0.10001,0.10001 0 0 0 -0.01563,-0.05273 z"></path>
                 <path d="M 12.879253,33.407852 V 20.654118 L 1.7791632,3.104815 H 8.9518466 L 16.083189,15.093738 23.069837,3.104815 h 7.04866 l -11.14143,17.590644 v 12.712393 z"></path>
                </svg>