<svg viewBox="0 0 40 45" xmlns="http://www.w3.org/2000/svg" xmlns:svg="http://www.w3.org/2000/svg">
                    <path d="M 1.5371094,3.0039063 A 0.10001,0.10001 0 0 0 1.4375,3.1054688 V 33.408203 a 0.10001,0.10001 0 0 0 0.099609,0.09961 h 5.6835937 a 0.10001,0.10001 0 0 0 0.1015625,-0.09961 V 10.363281 l 5.7968758,23.06836 a 0.10001,0.10001 0 0 0 0.09766,0.07617 h 5.890625 a 0.10001,0.10001 0 0 0 0.09766,-0.07617 l 5.816406,-23.070313 v 23.046875 a 0.10001,0.10001 0 0 0 0.101563,0.09961 h 5.683594 a 0.10001,0.10001 0 0 0 0.09961,-0.09961 V 3.1054688 a 0.10001,0.10001 0 0 0 -0.09961,-0.1015625 h -9.177735 a 0.10001,0.10001 0 0 0 -0.0957,0.076172 L 16.191406,23.384766 10.791016,3.0800781 a 0.10001,0.10001 0 0 0 -0.09766,-0.076172 z m 0.099609,0.2011718 h 8.9804696 l 5.478515,20.5957029 a 0.10001,0.10001 0 0 0 0.193359,0 L 21.707031,3.2050781 h 9 V 33.308594 H 25.222656 V 9.5546875 A 0.10001,0.10001 0 0 0 25.025391,9.5292969 L 19.029297,33.308594 H 13.294922 L 7.3183594,9.5292969 A 0.10001,0.10001 0 0 0 7.1210937,9.5546875 V 33.308594 h -5.484375 z"></path>
                 <path d="M 1.5372005,33.407852 V 3.104815 H 10.694257 L 16.192626,23.775372 21.628982,3.104815 H 30.80671 V 33.407852 H 25.122306 V 9.5540289 L 19.107174,33.407852 H 13.216065 L 7.2216038,9.5540289 V 33.407852 Z"></path>
                </svg>