<svg viewBox="0 0 40 43" xmlns="http://www.w3.org/2000/svg" xmlns:svg="http://www.w3.org/2000/svg">
                    <path d="m 12.902344,2.5800781 a 0.10001,0.10001 0 0 0 -0.09375,0.0625 L 1.0058594,32.945312 a 0.10001,0.10001 0 0 0 0.09375,0.136719 h 6.4902343 a 0.10001,0.10001 0 0 0 0.09375,-0.06641 l 2.4765623,-6.816406 h 11.97461 l 2.621093,6.818359 a 0.10001,0.10001 0 0 0 0.09375,0.06445 h 6.65625 a 0.10001,0.10001 0 0 0 0.0918,-0.136719 L 19.464844,2.6425781 a 0.10001,0.10001 0 0 0 -0.09375,-0.0625 z m 0.06836,0.1992188 h 6.333984 L 31.357422,32.882812 H 24.917969 L 22.296875,26.0625 a 0.10001,0.10001 0 0 0 -0.09375,-0.06445 H 10.089844 a 0.10001,0.10001 0 0 0 -0.09375,0.06641 L 7.5195312,32.882812 H 1.2441406 Z m 3.09375,6.8691406 a 0.10001,0.10001 0 0 0 -0.09375,0.066406 l -4.09375,11.2441405 a 0.10001,0.10001 0 0 0 0.09375,0.134766 h 8.269531 a 0.10001,0.10001 0 0 0 0.09375,-0.134766 L 16.158203,9.7128906 a 0.10001,0.10001 0 0 0 -0.09375,-0.064453 z m 0,0.3906255 4.03125,10.853515 h -7.980469 z"></path>
                 <path d="M 31.505257,32.982277 H 24.849338 L 22.203507,26.098981 H 10.09056 L 7.5894225,32.982277 H 1.0988675 L 12.901756,2.6792398 H 19.37164 Z M 20.239804,20.993354 16.064351,9.7485704 11.971581,20.993354 Z"></path>
                </svg>