<svg viewBox="0 0 30 45" xmlns="http://www.w3.org/2000/svg" xmlns:svg="http://www.w3.org/2000/svg">
                    <path d="M 4.453125,2.3671875 A 0.10001,0.10001 0 0 0 4.353516,2.4667965 V 32.769531 a 0.10001,0.10001 0 0 0 0.099609,0.09961 h 5.685547 a 0.10001,0.10001 0 0 0 0.09961,-0.09961 V 13.361328 l 12.03125,19.460938 a 0.10001,0.10001 0 0 0 0.08398,0.04687 h 6.140625 a 0.10001,0.10001 0 0 0 0.09961,-0.09961 V 2.4667969 a 0.10001,0.10001 0 0 0 -0.09961,-0.099609 H 22.80859 a 0.10001,0.10001 0 0 0 -0.09961,0.099609 V 22.347656 L 10.492188,2.4140625 a 0.10001,0.10001 0 0 0 -0.08594,-0.046875 z m 0.099609,0.1992188 h 5.798829 L 22.724609,22.755859 a 0.10001,0.10001 0 0 0 0.183594,-0.05273 V 2.5664063 h 5.484375 V 32.669922 h -5.982422 l -12.1875,-19.714844 a 0.10001,0.10001 0 0 0 -0.185547,0.05274 V 32.669922 H 4.5527344 Z"></path>
                 <path d="M 4.4535798,32.769485 V 2.4664483 H 10.4067 L 22.809035,22.702924 V 2.4664483 h 5.684403 V 32.769485 h -6.139155 l -12.2163,-19.761052 v 19.761052 z"></path>
                </svg>